<?xml version="1.0" encoding="utf-8"?>
<!-- Generator: Adobe Illustrator 22.1.0, SVG Export Plug-In . SVG Version: 6.00 Build 0)  -->
<svg version="1.1" id="Layer_1" xmlns="http://www.w3.org/2000/svg" xmlns:xlink="http://www.w3.org/1999/xlink" x="0px" y="0px"
	 viewBox="0 0 60 60" enable-background="new 0 0 60 60" xml:space="preserve" width="60px" height="60px">
<title>logotype</title>
<path fill="#FFFFFF" d="M11.7,35.1c0-0.2-0.1-0.4-0.1-0.5s0-0.2,0-0.2c0-0.1,0-1.7,0-1.7s-0.1,0.6-0.1,1.3c0.1,0.3,0.1,0.6,0.2,0.9
	l0,0l0,0c0.1,0.4,0.2,0.7,0.3,1.1C11.8,35.6,11.7,35.3,11.7,35.1z M11.6,25L11.6,25L11.6,25L11.6,25c-0.1,0.3-0.2,0.6-0.2,0.9l0,0
	c0,0.6,0,1.3,0.1,1.3s0-1.6,0-1.7c0,0,0-0.1,0-0.2s0.1-0.3,0.1-0.5s0.1-0.6,0.2-0.9C11.8,24.2,11.7,24.6,11.6,25z M48.4,32.7
	c0,0,0,1.6,0,1.7c0,0.1,0,0.1,0,0.2c0,0.1-0.1,0.3-0.1,0.5s-0.1,0.6-0.2,0.9c0.1-0.4,0.2-0.7,0.3-1.1l0,0l0,0
	c0.1-0.3,0.1-0.6,0.2-0.9C48.5,33.3,48.5,32.7,48.4,32.7z M48.3,25L48.3,25L48.3,25L48.3,25c-0.1-0.4-0.2-0.8-0.3-1.1
	c0.1,0.4,0.2,0.7,0.2,0.9s0.1,0.4,0.1,0.5s0,0.1,0,0.2s0,1.7,0,1.7s0.1-0.6,0.1-1.3l0,0C48.5,25.6,48.4,25.3,48.3,25z M48.5,25.9
	c0,0.6,0,1.3-0.1,1.3s0-1.6,0-1.7s0-0.1,0-0.2s-0.1-0.3-0.1-0.5s-0.1-0.6-0.2-0.9l0,0C44.7,13.9,34,8.6,24,11.9
	c-5.6,1.9-10.1,6.3-12,12l0,0c-0.1,0.4-0.2,0.7-0.2,0.9c-0.1,0.2-0.1,0.4-0.1,0.5v0.2c0,0.1,0,1.7,0,1.7s-0.1-0.6-0.1-1.3
	c-0.6,2.7-0.6,5.4,0,8c0-0.6,0-1.3,0.1-1.3s0,1.6,0,1.7c0,0,0,0.1,0,0.2c0,0.1,0.1,0.3,0.1,0.5s0.1,0.6,0.2,0.9
	c3.4,10,14.1,15.3,24.1,12c5.6-1.9,10.1-6.3,12-12c0.1-0.4,0.2-0.7,0.2-0.9s0.1-0.4,0.1-0.5s0-0.1,0-0.2c0-0.1,0-1.7,0-1.7
	s0.1,0.6,0.1,1.3C49.1,31.3,49.1,28.6,48.5,25.9z M29.9,48.5c-10.3,0-18.6-8.3-18.6-18.6s8.4-18.6,18.6-18.6s18.6,8.3,18.6,18.6
	S40.2,48.5,29.9,48.5z M55.9,40.6c-0.1,0.1-0.2,0.1-0.3,0.1c-0.2,0-0.3,0-0.5-0.1s-0.4-0.2-0.6-0.3c-0.1-0.1-0.3-0.1-0.4-0.1
	c-0.2,0-0.3,0.1-0.4,0.1c-0.1,0.1-0.3,0.2-0.4,0.3c-0.1,0.1-0.2,0.3-0.3,0.4c0,0.1,0,0.2-0.1,0.3l0,0c-0.3,0-0.6,0-0.8,0
	c-0.3,0-0.6,0-0.9,0c0.3-0.2,0.5-0.4,0.7-0.7c0.7-0.2,0.9-0.7,0.9-1.2v-0.1c0-0.5,0.1-0.6,0.1-0.6c-0.5,0.2-0.7,0.5-0.8,0.7
	c-0.1-0.9-0.8-1.7-1.8-1.6c-0.7,0.1-1.2,0.6-1.2,1.2c0,0.3,0.1,0.5,0.2,0.7l0,0c0,0,0.6,1,1.4,0.5c0.6-0.4,0.1-1,0.1-1
	c-0.1,0,0,0.4-0.3,0.5c0,0,0-0.4-0.3-0.2c-0.3,0.1-0.6,0.1-0.8-0.2c0-0.1,0-0.2,0-0.3c0.1-0.5,0.5-0.8,0.9-0.9c1-0.1,1.7,1.1,1.2,2
	c-0.5,1-1.7,1.2-2.6,0.6c-0.4-0.3-0.8-0.7-0.9-1.1c-0.1-0.2-0.2-0.5-0.2-0.8l0,0c0.1-0.3,0.2-0.6,0.3-0.9c0.2-1,0.4-2,0.4-3.1
	c0-0.1,0-0.6,0-1.2c-0.1,0.3-0.1,0.6-0.2,0.9c-0.1,0.6-0.1,1.2-0.2,1.8c-0.3,1.6-0.7,3.1-1.5,4.5c-0.3,0.6-0.7,1.2-1.1,1.7
	c-0.4,0.3-0.8,0.6-1.2,1c-0.5,0.5-0.9,1-1.3,1.6c-0.5,0.6-2,0.9-2.3,1.1c-0.3,0.2-0.6,0.6,0,0.8s1.9-1.3,1.9-1.3l0.1-0.1
	c-0.2,0.3-0.5,0.6-0.7,1l0,0c0,0-0.1,0.1-0.4,0.4c-0.2,0.2-0.6,0.6-1,1c-0.2,0.2-0.5,0.4-0.8,0.6c-0.3,0.2-0.6,0.4-1,0.5h-0.1h-0.1
	h-0.2h-0.2c-0.2,0-0.4,0-0.5,0l0,0c0.2-0.2,0.3-0.4,0.3-0.6c0-0.1,0-0.2,0-0.3s-0.1-0.2-0.2-0.3c-0.1-0.1-0.2-0.2-0.3-0.2
	c-0.1-0.1-0.3-0.1-0.4,0c-0.1,0-0.2,0.1-0.3,0.2c-0.1,0.1-0.1,0.2-0.1,0.4c0,0.1,0,0.3,0.1,0.4c0,0.1,0.1,0.2,0.2,0.3
	c0.1,0.1,0.2,0.2,0.3,0.2h0.1h0.1l0,0c-0.1,0.1-0.2,0.1-0.2,0.2h-0.1h-0.1c-0.1,0-0.2,0-0.3,0c-0.2,0-0.3,0-0.5-0.1
	c-0.1-0.1-0.3-0.2-0.4-0.2c-0.1-0.1-0.2-0.2-0.3-0.3l-0.2-0.1l-0.5,0.1h-0.2h-0.2c-0.1,0-0.2,0-0.3,0.1S34,49,33.9,49.1
	c0,0.1,0,0.1,0,0.1l0.1-0.1c0.1-0.1,0.2-0.2,0.3-0.2s0.2-0.1,0.3-0.1h0.1h0.2l0.2,0.1l0.1,0.1c0.1,0.1,0.2,0.2,0.3,0.3
	s0.3,0.2,0.4,0.3c0.2,0.1,0.3,0.1,0.5,0.1c0.1,0,0.2,0,0.3,0h0.1c0,0,0.1,0,0.1-0.1c0.1-0.1,0.2-0.2,0.3-0.2l0,0
	c0.2,0,0.4,0.1,0.6,0.1H38h0.2h0.2h0.2c0.4-0.1,0.7-0.3,1-0.5s0.5-0.4,0.8-0.6c0.4-0.3,0.7-0.7,1-1l0.2-0.2
	c-0.6,0.8-1.2,1.7-1.8,2.5c-0.1,0.2-0.2,0.3-0.4,0.5l-0.3,0.4l0,0c-0.8,1-1.7,2-2.8,2.5c-0.6,0.3-1.4,0.5-2.1,0.4
	c-0.1,0-0.8-0.2-1.3-0.3l-0.2-0.1c0.3-0.1,0.8-0.6,0.8-0.6c0.3-0.3,0.6-0.7,0.6-1.1c0.1-0.9-0.7-1.8-1.6-1.7c-1,0-1.6,0.9-1.5,1.9
	c0.1,0.4,0.3,0.8,0.6,1.1c0.1,0,0.6,0.4,0.8,0.5l-0.3,0.2c-0.2,0.1-0.3,0.1-0.5,0.1c-0.1,0-0.2,0-0.3-0.1c-0.1,0-0.2-0.1-0.3-0.2
	c-0.2-0.1-0.4-0.3-0.5-0.5c-0.1-0.1-0.2-0.3-0.3-0.5c-0.2-0.3-0.3-0.4-0.3-0.4s-0.1,0.2-0.3,0.4c-0.1,0.2-0.2,0.3-0.3,0.5
	c-0.1,0.2-0.3,0.3-0.5,0.5c-0.1,0.1-0.2,0.1-0.3,0.2c-0.1,0-0.2,0.1-0.3,0.1c-0.2,0-0.4,0-0.5-0.1l-0.3-0.2c0.2,0,0.8-0.4,0.8-0.5
	c0.3-0.3,0.6-0.7,0.6-1.1c0.1-1-0.5-1.8-1.5-1.9c-0.9,0-1.7,0.8-1.6,1.7c0.1,0.4,0.3,0.8,0.6,1.1c0.1,0.1,0.5,0.5,0.8,0.6h-0.2
	c-0.5,0.1-1.2,0.3-1.3,0.3c-0.7,0.1-1.4-0.1-2.1-0.4c-1.1-0.5-2-1.5-2.8-2.5l0,0l-0.3-0.4c-0.1-0.2-0.3-0.3-0.4-0.5
	c-0.6-0.8-1.2-1.7-1.8-2.5l0.2,0.2c0.3,0.4,0.6,0.7,1,1c0.2,0.2,0.5,0.4,0.8,0.6c0.3,0.2,0.7,0.4,1,0.5h0.2h0.2h0.2h0.1
	c0.2,0,0.4,0,0.6-0.1l0,0c0.1,0.1,0.2,0.2,0.3,0.2c0,0,0.1,0,0.1,0.1H23c0.1,0,0.2,0,0.3,0c0.2,0,0.4-0.1,0.5-0.1
	c0.1-0.1,0.3-0.2,0.4-0.3s0.2-0.2,0.3-0.3l0.1-0.1l0.2-0.1H25h0.1c0.1,0,0.2,0,0.3,0.1c0.1,0,0.2,0.1,0.3,0.2l0.1,0.1
	c0,0,0-0.1-0.1-0.1c-0.1-0.1-0.2-0.2-0.3-0.2c-0.1,0-0.2-0.1-0.3-0.1h-0.2h-0.2l-0.2,0.1l0.1,0.3c-0.1,0.1-0.2,0.2-0.3,0.3
	c-0.1,0.1-0.2,0.2-0.4,0.2c-0.1,0.1-0.3,0.1-0.5,0.1c-0.1,0-0.2,0-0.3,0H23h-0.1c-0.1-0.1-0.2-0.1-0.2-0.2l0,0h0.1h0.1
	c0.1-0.1,0.2-0.1,0.3-0.2c0.1-0.1,0.1-0.2,0.2-0.3c0-0.1,0.1-0.2,0.1-0.4c0-0.1-0.1-0.2-0.1-0.4c-0.1-0.1-0.2-0.2-0.3-0.2
	c-0.1,0-0.3,0-0.4,0c-0.1,0.1-0.2,0.1-0.3,0.2c-0.1,0.1-0.1,0.2-0.2,0.3c0,0.1,0,0.2,0,0.3c0,0.2,0.1,0.4,0.3,0.6l0,0
	c-0.2,0-0.3,0-0.5,0h-0.2h-0.2h-0.1h-0.1c-0.4-0.1-0.7-0.3-1-0.5s-0.5-0.4-0.8-0.6c-0.5-0.4-0.8-0.7-1-1s-0.4-0.4-0.4-0.4l0,0
	c-0.2-0.3-0.5-0.6-0.7-1l0.1,0.1c0,0,1.3,1.5,1.9,1.3s0.3-0.6,0-0.8c-0.3-0.3-1.8-0.5-2.3-1.1c-0.4-0.6-0.8-1.1-1.3-1.6
	c-0.4-0.4-0.8-0.7-1.2-1c-0.4-0.5-0.8-1.1-1.1-1.7c-0.8-1.4-1.2-2.9-1.5-4.5c-0.1-0.6-0.2-1.2-0.2-1.8c-0.1-0.3-0.1-0.6-0.2-0.9
	c0,0.5,0,1.1,0,1.2c0.1,1,0.2,2.1,0.4,3.1c0.1,0.3,0.2,0.6,0.3,0.9l0,0c0,0.3-0.1,0.5-0.2,0.8c-0.5,0.5-0.8,0.9-1.3,1.2
	c-0.9,0.5-2.1,0.4-2.6-0.6c-0.5-0.8,0.2-2.1,1.2-2c0.5,0,0.8,0.4,0.9,0.9c0.1,0.2,0,0.5-0.3,0.6c-0.2,0.1-0.4,0-0.5-0.1
	c-0.3-0.2-0.3,0.2-0.3,0.2C9,40.1,9,39.6,9,39.6s-0.6,0.6,0.1,1c0.8,0.5,1.4-0.5,1.4-0.5l0,0c0.2-0.2,0.2-0.5,0.2-0.7
	c-0.1-0.7-0.6-1.2-1.2-1.2c-1-0.1-1.7,0.7-1.8,1.6c-0.1-0.3-0.3-0.6-0.8-0.7c0,0,0.2,0.2,0.1,0.6c0,0.5,0.2,1.1,0.9,1.3
	c0.2,0.3,0.4,0.5,0.7,0.7c-0.2,0-0.5,0-0.9,0c-0.3,0-0.6,0-0.8,0l0,0c0-0.1,0-0.2-0.1-0.3c-0.1-0.2-0.2-0.3-0.3-0.4
	c-0.1-0.1-0.2-0.2-0.4-0.3c-0.1-0.1-0.3-0.1-0.4-0.1s-0.3,0-0.4,0.1c-0.2,0.1-0.4,0.2-0.6,0.3c-0.1,0.1-0.3,0.1-0.5,0.1
	C4.1,41.1,4,41,3.9,41l-0.1-0.1c0,0,0,0,0.1,0.1c0.1,0.1,0.2,0.1,0.3,0.2c0.1,0,0.2,0,0.2,0c0.1,0,0.2,0,0.3-0.1
	c0.2-0.1,0.4-0.2,0.6-0.3c0.1,0,0.2-0.1,0.4-0.1c0.1,0,0.3,0.1,0.4,0.1c0.3,0.2,0.5,0.4,0.6,0.7c0,0.1,0,0.1,0.1,0.2
	c-0.3,0-0.5,0.1-0.8,0.1c-0.2,0-0.3,0.1-0.5,0.2c-0.1,0.1-0.2,0.1-0.2,0.2c-0.1,0.1-0.1,0.2-0.1,0.3s0,0.2,0,0.3v0.1V43
	c0,0,0,0.1,0.1,0.1c0.1,0.1,0.2,0.2,0.3,0.2s0.2,0,0.3,0s0.1,0,0.2-0.1l0.1-0.1C6.3,43,6.4,43,6.4,42.9c0.1-0.1,0.2-0.3,0.3-0.5
	c0.2-0.3,0.2-0.5,0.2-0.7v-0.2l0,0c0.3,0,0.6,0,0.8,0h0.9c-0.3,0.1-0.5,0.2-0.7,0.4c-0.5,0.4-0.9,1-1.1,1.6
	c-0.1,0.4-0.1,0.9,0.1,1.3v0.5c0,0-0.2,1.4,0.8,1.7c0.5,0.2,0.6,0.4,0.6,0.4c0.2-0.5,0.1-1.1-0.3-1.5c0.1,0,0.2,0.1,0.3,0.1l0,0l0,0
	c0.8,0.3,1.8-0.2,2.2-1c0.3,0,1.2,0,1.4-0.7c0.1-0.5,0.3-0.6,0.3-0.6c-1.2-0.3-1.5,0.8-1.5,0.8c0,0.1-0.1,0.1-0.1,0.2
	c0.1-0.2,0.1-0.4,0-0.6c-0.1-0.6-0.5-1-1.1-1.2c-0.3-0.1-0.6,0-0.8,0.2l0,0c0,0-1.1,0.6-0.4,1.5c0.4,0.6,0.4-0.1,0.3-0.3
	c0,0,0.4,0.2,0.4-0.5c0-0.3,0.3-0.4,0.5-0.4c0.4,0,0.6,0.4,0.7,0.7c0.2,1.1-1.2,1.7-2.1,1.2C7.2,44.8,7,43.9,7.3,43
	c0.2-0.5,0.5-0.9,0.9-1.2c0.1,0,0.4-0.2,0.6-0.4c0.6,0.3,1.2,0.3,1.8,0.1c0.6-0.2,1.1-0.7,1.4-1.3c0.1-0.2,0.2-0.4,0.2-0.7
	c0.2,0.5,0.4,1.1,0.7,1.6c0.2,0.3,0.4,0.6,0.5,0.9c-0.5,0.8-0.5,1.4-0.1,2.5c0.2,0.5,0,0.9,0,0.9c1.2-0.7,1-1.9,0.6-2.7l0.7,0.9
	c0,0-0.3,1.1,0,2c0,0,0.6-0.7,0.4-1.4l0,0c0.1,0.2,0.3,0.5,0.5,0.9s0.5,0.9,0.6,1.4c0.2,0.5,0.4,1.2,0.3,1.8c0,0.3-0.1,0.6-0.2,0.9
	c-0.1,0.3-0.3,0.5-0.5,0.7c-0.1,0.1-0.2,0.2-0.3,0.2c-0.1,0.1-0.2,0.1-0.3,0.2c-0.2,0.1-0.4,0.1-0.7,0.2c-0.3,0-0.7,0-1,0
	c-0.2,0-0.4,0-0.4,0s0.1,0.1,0.4,0.1c0.3,0.1,0.7,0.1,1,0c0.2,0,0.5-0.1,0.7-0.2c0.1,0,0.3-0.1,0.4-0.2c0.1-0.1,0.2-0.2,0.4-0.3
	c0.2-0.2,0.4-0.5,0.5-0.8s0.2-0.6,0.2-1c0-0.3,0-0.7-0.1-1s-0.2-0.6-0.3-0.9c-0.2-0.5-0.4-0.9-0.7-1.4l0,0c0.9,1.3,1.7,2.8,1.3,4.3
	c-0.6,1.8-3.1,2.4-4.6,1.5s-1.8-3.5,0-4.3c0.1-0.1,0.3-0.1,0.4-0.1c0.4,0.2,0.6,0.5,0.7,0.9c0.1,0.9,0.9,0.6,0.8,0
	c-0.1-0.3-0.6-0.8-1.2-1c0.7,0,1.4,0.4,1.7,1c0.2,0.4,0.2,0.9,0,1.3c-0.3,0.4-1,0.6-1.6,0.4c-0.9-0.3-0.8-0.8-0.8-0.8
	c-0.5,0.6,0.4,1,0.4,1l0,0c0,0-0.7,0.4-0.1,0.8c0.6,0.4,2.1-1.1,2.1-1.1l0,0c0.2-0.2,0.3-0.5,0.3-0.8c0.1-0.9-0.5-1.8-1.4-2.1
	c-1.6-0.5-3.2,0.9-3.1,2.5c0,0.3,0.1,0.6,0.2,0.8l-0.1-0.2c-0.1-0.3-0.2-0.5-0.3-0.8V48v-0.1c0,0,0-0.2-0.1-0.3c0-0.2,0-0.4,0-0.7
	v-0.1v-0.1c0,0,0,0,0-0.1h0.1c0.1,0,0.2-0.1,0.3-0.2c0.1-0.1,0.2-0.2,0.3-0.3c0-0.1,0.1-0.1,0.1-0.2c0-0.1,0-0.2,0-0.2
	c0-0.1-0.1-0.2-0.1-0.2l-0.1-0.1h-0.1c-0.1,0-0.2,0.1-0.2,0.1c-0.1,0-0.1,0.1-0.1,0.2c-0.1,0.1-0.1,0.2-0.2,0.4
	c0,0.1-0.1,0.3-0.1,0.4l0,0c-0.2,0.1-0.3,0.1-0.5,0.1s-0.4,0.1-0.6,0.1c-0.2,0.1-0.3,0.2-0.4,0.3c-0.1,0.1-0.1,0.3,0,0.4
	c0,0.1,0.1,0.1,0.1,0.2l0.1,0.1c0,0,0,0,0-0.1s-0.1-0.1-0.1-0.2c0-0.1,0-0.1,0-0.2c0-0.1,0-0.1,0-0.2c0.1-0.1,0.2-0.2,0.4-0.2
	s0.4-0.1,0.6-0.1c0.1,0,0.3-0.1,0.4-0.1v0.1v0.1c0,0.2,0,0.5,0,0.7c0,0.1,0,0.2,0.1,0.3v0.1V48c0.1,0.3,0.2,0.5,0.4,0.8
	c0.1,0.2,0.2,0.3,0.2,0.3c0.3,0.8,0.9,1.5,1.8,1.8c0,0-0.1,0.1-0.4,0c-0.7-0.2-1.2-1.1-3-0.4c0,0,0.5,0.1,0.9,0.7
	c0.4,0.6,1.5,0.7,2.3,0.3c0.1-0.1,0.5-0.5,0.5-0.5c0.2,0.1,0.4,0.1,0.6,0.1c0.8,0.1,1.7-0.1,2.4-0.4c0.9-0.4,1.6-1.1,1.7-2.1l0,0
	l0,0l0,0l0,0l0,0c0.1-0.6,0-1.2-0.2-1.6c0,0.1,0.1,0.2,0.1,0.3c0.2,0.5,0.2,1,0.3,1.5c0,0.3,0,0.7-0.1,1c0,0.2-0.1,0.4-0.2,0.5
	c0,0.1-0.1,0.2-0.1,0.3l-0.1,0.1v0.1l-0.1,0.1c-0.1,0.2-0.3,0.3-0.5,0.4c-0.1,0.1-0.2,0.1-0.3,0.2l-0.2,0.1l-0.2,0.1
	c-0.2,0.1-0.4,0.1-0.7,0.2L14.5,52l-0.3,0.1l0,0V52v-0.1c-0.1-0.1-0.2-0.1-0.3-0.2h-0.1h-0.2c-0.2,0-0.3,0.1-0.5,0.2
	c-0.1,0.1-0.2,0.2-0.4,0.3l-0.1,0.2v0.7c-0.1,0.1-0.2,0.1-0.3,0.2c-0.1,0-0.2,0-0.3,0s-0.2-0.1-0.3-0.2C11.6,53,11.6,53,11.6,53
	l0.1,0.1c0.1,0.1,0.2,0.2,0.3,0.2s0.2,0,0.3,0s0.2-0.1,0.3-0.2c0.1,0,0.1-0.1,0.1-0.1l0.2-0.1c0.1-0.1,0.2-0.2,0.4-0.3
	c0.1-0.1,0.3-0.1,0.4-0.2h0.2H14c0.1,0,0.2,0.1,0.2,0.1l0.1,0.1c-0.1,0-0.2,0-0.3,0.1c-0.1,0-0.2,0.1-0.3,0.2
	c-0.1,0.1-0.2,0.2-0.3,0.3c0,0.1-0.1,0.3,0,0.4c0,0.1,0,0.1,0.1,0.2c0.1,0.1,0.2,0.2,0.4,0.2c0.1,0,0.1,0,0.2-0.1
	c0.1-0.1,0.2-0.1,0.3-0.2c0.2-0.2,0.2-0.4,0.3-0.6c0-0.1,0-0.2,0-0.3H15l0.7-0.1c0.2,0,0.5-0.1,0.7-0.2l0.2-0.1l0.2-0.1
	c0.1,0,0.2-0.1,0.3-0.2c0.2-0.1,0.4-0.3,0.5-0.4l0.1-0.1c0,0,0,0,0-0.1l0.1-0.1c0.1-0.1,0.1-0.2,0.2-0.3c0.1-0.2,0.1-0.4,0.2-0.6
	l0,0c-0.1,0.6-0.2,1.1-0.2,1.7c0,0.2,0,0.3,0,0.5c-0.1,0.3-0.3,0.7-0.6,1c-0.4,0.6-0.3,2,0.4,2.1c0.4,0,0.8,0.3,1,0.7
	c0.3-1.2-0.8-1.6-0.9-2.3c-0.1-0.4-0.1-0.8,0.1-1.2l0,0c0.1,0.6,0.3,1.1,0.7,1.5c0.4,0.5,1,0.8,1.7,0.8c0.4,0,0.7-0.1,1-0.3
	c0.9-0.1,1.9,0.6,2,0.3c0.1-0.2,0-0.5-0.2-0.6c-0.5-0.6-1.5,0-1.5,0c0.2-0.3,0.4-0.6,0.4-0.9c0.1-0.9-0.6-1.8-1.5-1.7
	c-0.4,0.1-0.8,0.3-0.9,0.7c-0.1,0.2-0.1,0.6-0.1,0.8c0,0,0.1,0.4,0.3,0.2c0,0,0.3,0,0.3,0.6c0,0,0.3-0.1,0.3-0.9
	c0-0.8,1.1-0.6,1.2,0.2c0,0.2,0,0.3-0.1,0.4c-0.3,0.8-1.3,1-2,0.6c-0.4-0.2-0.8-0.6-0.9-1c-0.3-0.7-0.3-1.5-0.2-2.3s0.2-1.6,0-2.4
	c-0.2-0.8-0.5-1.6-1-2.3l-0.7-0.6c-0.2-0.4-0.4-0.7-0.6-1c-0.3-0.5-0.6-0.9-1-1.4c0.5,0.6,1.1,1.3,1.6,1.9c1,1.4,1.9,2.8,2.9,4.1
	l0,0l0.2,0.4l0,0c0.9,1.2,2,2.5,3.4,3.2c0.7,0.4,1.5,0.5,2.3,0.4c0.2,0,0.4-0.1,0.6-0.2c-0.2,0.1-0.4,0.3-0.4,0.3
	c-0.6,0.5-1.1,1.1-1.2,1.8v0.2l0,0l-0.1-0.1l-0.1-0.1c-0.1-0.1-0.2-0.1-0.4-0.2c-0.2,0-0.4,0-0.6,0c-0.1,0-0.2,0.1-0.3,0.1
	c-0.1,0-0.2,0.1-0.3,0.2c-0.2,0.2-0.3,0.4-0.4,0.7c0,0.3,0.1,0.6,0.3,0.8c0.1,0.1,0.2,0.2,0.4,0.3c0.1,0,0.2,0,0.3,0
	c0.1,0.2,0.3,0.3,0.4,0.4c0.1,0.1,0.2,0.2,0.3,0.2c0,0-0.1-0.1-0.2-0.3c-0.1-0.1-0.2-0.3-0.3-0.4h0.1c0.2,0,0.3-0.1,0.4-0.3
	c0.1-0.1,0.2-0.3,0.2-0.4c0-0.2,0-0.3-0.1-0.4c-0.1-0.1-0.2-0.2-0.4-0.2c-0.1,0-0.3,0-0.4,0.1l-0.1,0.1l-0.1,0.1
	c0,0.1-0.1,0.1-0.1,0.2c0,0.1,0,0.2,0,0.4c0,0.1,0,0.1,0,0.2c0,0,0,0.1,0.1,0.1l0.1,0.2h-0.1c-0.1,0-0.2-0.1-0.3-0.2
	c-0.3-0.4-0.3-1,0.1-1.3c0.3-0.3,0.7-0.4,1.1-0.3c0.1,0,0.3,0.1,0.4,0.1c0.1,0.1,0.2,0.1,0.2,0.2c0,0.3,0,0.6,0.1,0.8l0,0
	c-0.7,1.4,0.4,2,0.6,2.4c0.1,0.3,0.1,0.5,0.1,0.8c0.4-0.6,0.5-1.2,0.4-1.6c0.5,0.4,1.2,0.5,1.8,0.3c1-0.3,1.6-1.3,1.4-2.2l0,0
	c0.4-0.6,0.2-1.2-0.2-1.7c-0.4-0.5,0-0.7,0-0.7c-0.3,0.1-0.5,0.2-0.7,0.5s-0.1,0.6,0,0.8c-0.5-0.3-1.1-0.2-1.6,0.2
	c-0.3,0.3-0.5,0.6-0.4,1l0,0l0,0c0.1,0.3,0.4,1.2,1.3,0.7c-0.2-0.1-0.3-0.3-0.5-0.4c0-0.1,0.2-0.2,0.1-0.3c-0.1-0.4-0.5-0.8-0.5-0.8
	c0.5-0.5,1.2-0.4,1.7,0.1c0.8,1-0.2,2.2-1.3,2.3l0,0c-1.3,0-2.2-1.4-1.8-2.6c0.2-0.6,0.6-1.1,1.1-1.5c0.1-0.1,0.6-0.5,1-0.7
	c0.2-0.1,0.3-0.1,0.3-0.2l0,0c0.1,0.1,0.2,0.2,0.3,0.2c0.2,0.1,0.4,0.2,0.6,0.2c0.1,0,0.2,0,0.4-0.1c0.1,0,0.2-0.1,0.3-0.2l0.2-0.2
	h0.1c0.3-0.1,0.6,0,0.8,0.1c0.2,0.1,0.3,0.1,0.4,0.3c0.1,0.1,0.1,0.1,0.2,0.2c0.1,0.3,0.1,0.6,0,0.8c0,0.1-0.1,0.2-0.2,0.2
	c-0.1,0.1-0.2,0.1-0.2,0.1c-0.2,0.1-0.4,0-0.5,0s-0.1-0.1-0.2-0.2c-0.1-0.1-0.1-0.1-0.1-0.2c0-0.1,0-0.3,0.1-0.4
	c0-0.1,0.1-0.1,0.1-0.1l0.1-0.1h0.1h0.1h0.1h0.1l0,0l0,0l0,0h0.1c0,0,0,0,0-0.1l0,0l0,0l0,0h-0.1h-0.1h-0.1h-0.1
	c-0.1,0-0.2,0.1-0.3,0.3c-0.1,0.2-0.1,0.3-0.1,0.5c0,0.1,0.1,0.2,0.1,0.3c0.1,0.1,0.1,0.2,0.2,0.2c0.2,0.1,0.4,0.1,0.6,0.1
	c0.1,0,0.2-0.1,0.3-0.2c0.1-0.1,0.2-0.2,0.2-0.3c0.1-0.2,0.2-0.4,0.1-0.7c0-0.2-0.1-0.4-0.3-0.6c-0.1-0.1-0.3-0.2-0.5-0.3
	c-0.2,0-0.3-0.1-0.5-0.1c-0.1,0-0.3,0-0.4,0c0.1-0.1,0.1-0.1,0.2-0.2c0.1-0.2,0.2-0.3,0.3-0.5c0.1-0.1,0.1-0.3,0.2-0.5
	c0.1,0.2,0.1,0.3,0.2,0.5s0.2,0.3,0.3,0.5c0.1,0.2,0.3,0.4,0.5,0.5c0.1,0.1,0.2,0.1,0.3,0.2c0.1,0,0.2,0.1,0.4,0.1
	c0.2,0,0.4,0,0.6-0.2c0.1-0.1,0.2-0.1,0.3-0.2l0,0c0.1,0.1,0.2,0.1,0.3,0.2c0.4,0.3,0.9,0.7,1,0.7c0.5,0.4,0.9,0.9,1.1,1.5
	c0.3,1.2-0.6,2.6-1.8,2.6l0,0c-1.1,0-2.1-1.3-1.3-2.3c0.4-0.5,1.2-0.6,1.7-0.1c0,0-0.3,0.4-0.4,0.8c0,0.1,0,0.2,0,0.3
	c-0.2,0.2-0.3,0.3-0.5,0.4c0.9,0.5,1.2-0.4,1.3-0.7l0,0l0,0c0.1-0.4-0.1-0.8-0.4-1c-0.4-0.4-1.1-0.4-1.6-0.2c0.2-0.2,0.2-0.5,0-0.8
	s-0.3-0.4-0.7-0.5c0,0,0.4,0.3,0,0.7s-0.7,1-0.2,1.7c0,0.1,0,0.3,0,0.4l-0.1-0.1c-0.1-0.1-0.2-0.2-0.3-0.3c-0.1-0.1-0.3-0.1-0.5-0.1
	s-0.4,0-0.6,0.1l-0.1,0.1l-0.1,0.1c-0.1,0.1-0.2,0.1-0.2,0.2c-0.1,0.2-0.2,0.4-0.2,0.6c0,0.1,0,0.2,0.1,0.3c0.1,0.3,0.5,0.5,0.8,0.5
	c0.1,0,0.2,0,0.3-0.1c0.1,0,0.2-0.1,0.2-0.2c0.1-0.1,0.2-0.3,0.2-0.5c0-0.1-0.1-0.3-0.2-0.4l-0.1-0.1h-0.1h-0.5h-0.1H30h0.1h0.1
	l0.1,0.1v0.1l0,0l0,0c0,0.1,0,0.1,0,0.2c0,0.2-0.1,0.4-0.3,0.5c-0.1,0-0.2,0.1-0.2,0.1c-0.2,0-0.4-0.1-0.5-0.2
	c-0.1-0.1-0.1-0.1-0.2-0.2c0-0.1-0.1-0.2-0.1-0.3c0-0.2,0-0.4,0.1-0.6c0.1-0.1,0.1-0.1,0.2-0.2l0.1-0.1l0.1-0.1
	c0.2-0.1,0.3-0.1,0.5-0.1c0.1,0,0.3,0.1,0.4,0.1c0.1,0.1,0.2,0.1,0.3,0.2c0.1,0.1,0.1,0.1,0.1,0.2c0.1,0.7,0.7,1.4,1.4,1.6
	c0.6,0.2,1.2,0.1,1.8-0.3c-0.1,0.5,0,1,0.4,1.6c0-0.3,0-0.6,0.1-0.8c0.2-0.4,1.2-1,0.6-2.4l0,0c0.1-0.3,0.1-0.5,0.1-0.8
	c0.1-0.1,0.2-0.1,0.2-0.2c0.3-0.1,0.6-0.2,0.9-0.1c0.1,0,0.2,0.1,0.3,0.1s0.2,0.1,0.3,0.2c0.4,0.4,0.4,1,0.1,1.3
	c-0.1,0.1-0.2,0.2-0.3,0.2h-0.1c0-0.1,0.1-0.1,0.1-0.2c0,0,0-0.1,0.1-0.1c0-0.1,0-0.1,0-0.2c0-0.1,0-0.2,0-0.4c0-0.1,0-0.1-0.1-0.2
	c0,0,0-0.1-0.1-0.1l-0.1-0.1c-0.1-0.1-0.3-0.1-0.4-0.1c-0.2,0-0.3,0.1-0.4,0.2c-0.1,0.1-0.1,0.3-0.1,0.4c0,0.2,0.1,0.3,0.2,0.4
	c0.1,0.1,0.3,0.2,0.4,0.3h0.1c-0.1,0.2-0.2,0.3-0.3,0.4s-0.2,0.3-0.2,0.3s0.1-0.1,0.3-0.2c0.1-0.1,0.3-0.3,0.4-0.4
	c0.1,0,0.2,0,0.3,0c0.2,0,0.3-0.1,0.4-0.3c0.4-0.5,0.3-1.2-0.1-1.6C37,55,36.9,55,36.8,54.9c-0.1,0-0.2-0.1-0.3-0.1
	c-0.2,0-0.4,0-0.6,0c-0.1,0-0.3,0.1-0.4,0.2l-0.1,0.1l-0.1,0.1l0,0V55c-0.1-0.7-0.7-1.4-1.2-1.8c0,0-0.2-0.2-0.4-0.3
	c0.2,0.1,0.4,0.1,0.6,0.2c0.8,0.1,1.6,0,2.3-0.4c1.4-0.7,2.5-2,3.4-3.2l0,0l0.2-0.2l0,0c1-1.4,1.9-2.8,2.9-4.1
	c0.4-0.6,1.1-1.4,1.6-1.9c-0.3,0.4-0.7,0.9-1,1.4c-0.2,0.3-0.4,0.6-0.6,1l-0.4,0.5c-0.4,0.7-0.8,1.5-1,2.3s-0.1,1.6,0,2.4
	c0.1,0.8,0.1,1.6-0.2,2.3c-0.2,0.4-0.5,0.8-0.9,1c-0.7,0.4-1.7,0.1-2-0.6c-0.1-0.1-0.1-0.3-0.1-0.4c0.1-0.8,1.2-1,1.2-0.2
	s0.3,0.9,0.3,0.9c0-0.5,0.3-0.6,0.3-0.6c0.2,0.2,0.3-0.2,0.3-0.2c0.1-0.2,0-0.6-0.1-0.8c-0.2-0.4-0.5-0.6-0.9-0.7
	c-1-0.2-1.6,0.8-1.5,1.7c0,0.3,0.2,0.7,0.4,0.9c0,0-1-0.6-1.5,0c-0.1,0.1-0.3,0.4-0.2,0.6c0.1,0.3,1.1-0.4,2-0.3
	c0.3,0.2,0.6,0.3,1,0.3c0.7,0,1.3-0.3,1.7-0.8c0.4-0.4,0.6-0.9,0.7-1.5l0,0c0.2,0.4,0.2,0.8,0.1,1.2c-0.2,0.7-1.3,1.2-0.9,2.3
	c0.2-0.4,0.6-0.7,1-0.7c0.8-0.1,0.9-1.5,0.4-2.1c-0.2-0.3-0.4-0.7-0.6-1c0-0.2,0-0.3,0-0.5c0-0.6-0.1-1.1-0.2-1.7l0,0
	c0,0.2,0.1,0.4,0.2,0.6c0,0.1,0.1,0.2,0.2,0.3l0.1,0.1c0,0,0,0,0,0.1l0.1,0.1c0.1,0.2,0.3,0.3,0.5,0.4c0.1,0.1,0.2,0.1,0.3,0.2
	l0.2,0.1l0.2,0.1c0.2,0.1,0.5,0.2,0.7,0.2l0.7,0.1h0.3c-0.1,0.3,0,0.7,0.2,0.9c0.1,0.1,0.2,0.2,0.3,0.2s0.1,0,0.2,0.1
	c0.1,0,0.1,0,0.2,0c0.1,0,0.1-0.1,0.2-0.1c0-0.1,0-0.1,0.1-0.2c0-0.1,0-0.3,0-0.4c-0.1-0.1-0.1-0.2-0.3-0.3
	c-0.1-0.1-0.2-0.1-0.3-0.2c-0.1,0-0.2-0.1-0.3-0.1c0,0,0-0.1,0.1-0.1C46,52,46,52,46.1,52h0.1h0.2c0.2,0,0.3,0.1,0.4,0.2
	c0.1,0.1,0.2,0.2,0.4,0.3l0.2,0.1c0,0.1,0.1,0.1,0.1,0.1c0.1,0.1,0.2,0.1,0.3,0.2c0.1,0,0.2,0,0.3,0c0.1-0.1,0.2-0.1,0.3-0.2
	l0.1-0.1c0,0,0,0-0.1,0.1s-0.2,0.2-0.3,0.2s-0.2,0-0.3,0s-0.2-0.1-0.3-0.2l-0.1-0.1l-0.1-0.2c-0.1-0.1-0.2-0.2-0.4-0.3
	c-0.1-0.1-0.3-0.2-0.5-0.2h-0.5h-0.1c-0.1,0-0.2,0.1-0.3,0.2v0.1c0,0,0,0,0,0.1l0,0l-0.3-0.1l-0.7-0.1c-0.2,0-0.4-0.1-0.7-0.2
	l-0.2-0.1l-0.2-0.1c-0.1,0-0.2-0.1-0.3-0.2c-0.2-0.1-0.3-0.3-0.5-0.4L42.5,51v-0.1l-0.1-0.1c0-0.1-0.1-0.2-0.1-0.3
	c-0.1-0.2-0.1-0.4-0.2-0.5C42,49.7,42,49.3,42,49c0-0.5,0.1-1,0.3-1.5l0.1-0.3c-0.1,0.4-0.2,1-0.1,1.6l0,0l0,0l0,0
	c0.2,1,0.9,1.7,1.7,2.1c0.7,0.3,1.6,0.5,2.4,0.4c0.2,0,0.4-0.1,0.6-0.1c0,0,0.3,0.4,0.5,0.5c0.7,0.4,1.9,0.3,2.3-0.3
	c0.4-0.6,0.9-0.7,0.9-0.7c-1.8-0.6-2.3,0.2-3,0.4c-0.3,0.1-0.4,0-0.4,0c0.8-0.3,1.5-1,1.8-1.8c0,0,0.1-0.1,0.2-0.3
	c0.2-0.2,0.3-0.5,0.4-0.8v-0.1V48c0-0.1,0-0.2,0.1-0.3c0-0.2,0.1-0.5,0-0.7v-0.1v-0.1c0.1,0,0.3,0.1,0.4,0.1c0.2,0,0.4,0.1,0.6,0.1
	c0.2,0.1,0.3,0.1,0.4,0.2c0,0,0.1,0.1,0,0.2c0,0.1,0,0.1,0,0.2c0,0.1-0.1,0.1-0.1,0.2v0.1c0,0,0,0,0.1-0.1s0.1-0.1,0.1-0.2
	c0.1-0.1,0.1-0.3,0-0.4c-0.1-0.1-0.2-0.2-0.4-0.3s-0.4-0.1-0.6-0.1c-0.2,0-0.3-0.1-0.5-0.1l0,0c0-0.1-0.1-0.3-0.1-0.4
	c0-0.1-0.1-0.3-0.2-0.4c0-0.1-0.1-0.1-0.1-0.2c-0.1-0.1-0.1-0.1-0.2-0.1h-0.1c0,0-0.1,0-0.1,0.1c-0.1,0.1-0.1,0.1-0.1,0.2
	s0,0.2,0,0.2c0,0.1,0.1,0.1,0.1,0.2c0.1,0.1,0.2,0.2,0.3,0.3s0.2,0.1,0.3,0.2h0.1c0,0,0,0,0,0.1V47v0.1c0,0.2,0,0.4,0,0.7
	c0,0.1,0,0.2-0.1,0.3c0,0.1,0,0.1,0,0.1v0.1c-0.1,0.3-0.2,0.5-0.3,0.8l-0.1,0.2c0.1-0.3,0.1-0.6,0.2-0.8c0.1-1.6-1.5-3.1-3.1-2.5
	c-0.9,0.3-1.5,1.2-1.4,2.1c0,0.3,0.2,0.6,0.3,0.8l0,0c0,0,1.5,1.5,2.1,1.1c0.7-0.4-0.1-0.8-0.1-0.8l0,0c0,0,0.9-0.4,0.4-1
	c0,0,0.1,0.5-0.8,0.8c-0.6,0.2-1.3,0.1-1.6-0.4c-0.2-0.4-0.2-0.9,0-1.3c0.3-0.6,1-1,1.7-1c-0.6,0.2-1.1,0.7-1.2,1
	c-0.1,0.6,0.6,0.9,0.8,0c0.1-0.4,0.3-0.8,0.7-1c0.1,0,0.3,0.1,0.4,0.1c1.9,0.8,1.5,3.3,0,4.3S43.5,51,43,49.2
	c-0.5-1.5,0.4-3,1.3-4.3l0,0c-0.3,0.4-0.5,0.9-0.7,1.4c-0.1,0.3-0.2,0.6-0.3,0.9c-0.1,0.3-0.1,0.7-0.1,1s0.1,0.7,0.2,1
	c0.1,0.3,0.3,0.6,0.5,0.8c0.1,0.1,0.2,0.2,0.4,0.3c0.1,0.1,0.2,0.1,0.4,0.2c0.2,0.1,0.5,0.1,0.7,0.2c0.3,0,0.7,0,1,0
	c0.2,0,0.4-0.1,0.4-0.1h-0.4c-0.3,0-0.7,0-1,0c-0.2,0-0.5-0.1-0.7-0.2c-0.1,0-0.2-0.1-0.3-0.2c-0.1-0.1-0.2-0.2-0.3-0.2
	c-0.2-0.2-0.4-0.5-0.5-0.7c-0.1-0.3-0.2-0.6-0.2-0.9c0-0.7,0.1-1.3,0.3-1.8s0.4-0.9,0.6-1.4c0.2-0.4,0.4-0.7,0.5-0.9l0,0
	c-0.3,0.8,0.4,1.4,0.4,1.4c0.3-0.9,0-2,0-2l0.7-0.9c-0.4,0.8-0.6,2,0.6,2.7c0,0-0.2-0.4,0-0.9c0.4-1.2,0.4-1.7,0-2.5
	c0.2-0.3,0.4-0.6,0.5-0.9c0.3-0.5,0.5-1,0.7-1.6c0,0.2,0.1,0.5,0.2,0.7c0.3,0.6,0.8,1.1,1.4,1.3c0.6,0.2,1.2,0.2,1.8-0.1
	c0.2,0.1,0.6,0.4,0.6,0.4c0.4,0.3,0.7,0.7,0.9,1.2c0.3,0.8,0,1.8-0.8,2.3s-2.2-0.1-2.1-1.2c0.1-0.4,0.3-0.7,0.7-0.7
	c0.2,0,0.5,0.2,0.5,0.4c0,0.7,0.4,0.5,0.4,0.5c0,0.2-0.1,0.9,0.3,0.3c0.6-0.9-0.4-1.5-0.4-1.5l0,0C51,43,50.7,43,50.4,43
	c-0.6,0.1-1,0.6-1.1,1.2c0,0.2,0,0.4,0,0.6c-0.1-0.1-0.1-0.1-0.1-0.2c0,0-0.4-1.1-1.5-0.8c0,0,0.2,0.1,0.3,0.6
	c0.2,0.7,1.1,0.7,1.4,0.7c0.4,0.8,1.3,1.2,2.2,1l0,0l0,0c0.1,0,0.2-0.1,0.3-0.1c-0.3,0.4-0.4,1-0.3,1.5c0,0,0.1-0.3,0.6-0.4
	c0.9-0.3,0.8-1.7,0.8-1.7v-0.5l0,0c0.2-0.4,0.2-0.9,0.1-1.3C52.9,43,52.6,42.4,52,42c-0.2-0.2-0.5-0.3-0.7-0.4c0.2,0,0.5,0,0.9,0
	c0.3,0,0.5,0,0.8,0l0,0c0,0.1,0,0.1,0,0.2c0,0.2,0.1,0.4,0.1,0.6c0.1,0.2,0.2,0.3,0.3,0.5c0.1,0.1,0.1,0.1,0.2,0.2l0.1,0.1
	c0,0,0.1,0,0.2,0.1c0.1,0,0.2,0,0.3,0s0.2-0.1,0.3-0.2l0.1-0.1v-0.1v-0.1c0-0.1,0-0.2,0-0.3s0-0.2-0.1-0.3S54.4,42,54.3,42
	c-0.1-0.1-0.3-0.2-0.5-0.2c-0.3-0.1-0.5-0.1-0.8-0.1c0-0.1,0-0.1,0.1-0.2c0.1-0.3,0.3-0.5,0.6-0.7c0.1-0.1,0.2-0.1,0.4-0.1
	c0.1,0,0.2,0,0.4,0.1s0.4,0.2,0.6,0.3c0.1,0,0.2,0.1,0.3,0.1s0.2,0,0.2,0C55.8,40.8,55.9,40.7,55.9,40.6C56,40.6,56,40.5,55.9,40.6
	L55.9,40.6z M37.3,49.3L37.3,49.3l-0.2-0.1H37c0-0.1-0.1-0.1-0.1-0.2c-0.1-0.1-0.1-0.2-0.2-0.3c0-0.1,0-0.2,0-0.3
	c0-0.2,0.1-0.4,0.3-0.5c0.1,0,0.2,0,0.3,0s0.2,0.1,0.2,0.2c0.1,0.1,0.1,0.2,0.1,0.3s0,0.2,0,0.3C37.6,48.9,37.5,49.1,37.3,49.3
	L37.3,49.3z M22.2,48.7c0-0.1,0-0.2,0-0.3s0.1-0.2,0.1-0.3c0.1-0.1,0.1-0.1,0.2-0.2c0.1,0,0.2,0,0.3,0c0.2,0.1,0.3,0.3,0.3,0.5
	c0,0.1,0,0.2,0,0.3S23,48.9,22.9,49c0,0.1,0,0.1-0.1,0.2h-0.1h-0.1h-0.1l-0.1-0.1C22.4,49.1,22.3,48.9,22.2,48.7L22.2,48.7z
	 M6.6,42.2c-0.1,0.2-0.2,0.3-0.3,0.4c-0.1,0.1-0.1,0.1-0.2,0.2L6,42.9H5.9c-0.1,0-0.2,0-0.2,0c-0.1,0-0.1-0.1-0.2-0.1
	c0,0,0-0.1-0.1-0.1c0,0,0,0,0-0.1v-0.1c0-0.1,0-0.2,0-0.2c0-0.2,0.1-0.3,0.2-0.4c0.1-0.1,0.3-0.2,0.4-0.2c0.2-0.1,0.5-0.1,0.8-0.1
	C6.8,41.8,6.7,42,6.6,42.2z M10.4,46.7c0-0.1,0.1-0.2,0.2-0.3c0-0.1,0.1-0.1,0.1-0.1l0.1-0.1h0.1l0.1,0.1c0,0.1,0,0.2-0.1,0.3
	s-0.2,0.2-0.3,0.2c-0.1,0.1-0.2,0.1-0.3,0.2l0,0C10.3,46.9,10.3,46.8,10.4,46.7L10.4,46.7z M14.3,53c0,0.2-0.1,0.4-0.2,0.5
	c-0.1,0.1-0.1,0.1-0.2,0.2c-0.1,0-0.2,0.1-0.3,0c-0.1,0-0.1-0.1-0.1-0.2c0-0.1,0-0.2,0-0.3c0.1-0.2,0.3-0.3,0.5-0.4
	c0.1,0,0.2-0.1,0.3-0.1C14.3,52.9,14.3,53,14.3,53L14.3,53z M23.1,57.1c0,0,0-0.1,0-0.2c0-0.1,0-0.2,0-0.3s0-0.1,0.1-0.1
	c0,0,0,0,0-0.1h0.1c0.1-0.1,0.2-0.1,0.3-0.1c0.2,0,0.4,0.3,0.4,0.6c0,0.1-0.1,0.3-0.2,0.4l-0.2,0.1c-0.1,0-0.1,0.1-0.2,0.1
	s-0.1,0-0.2,0c0-0.1-0.1-0.2-0.1-0.2C23.2,57.1,23.2,57.1,23.1,57.1z M27.3,52.9l-0.1-0.1c-0.1-0.1-0.1-0.3-0.2-0.6
	c0-0.1-0.1-0.3-0.1-0.4c0-0.2-0.1-0.3-0.1-0.5v-0.1v-0.1c0-0.1,0.1-0.2,0.1-0.2c0.1-0.1,0.1-0.1,0.2-0.1h0.1h0.1h0.1
	c0.2,0,0.4,0.1,0.4,0.2c0.1,0.1,0.1,0.2,0.1,0.4s0,0.3-0.1,0.5c0,0.1-0.1,0.3-0.2,0.4C27.5,52.5,27.4,52.7,27.3,52.9L27.3,52.9z
	 M27.3,53L27.3,53L27.3,53c0-0.1,0-0.1,0.1-0.2c0.1-0.2,0.2-0.3,0.3-0.5c0.1-0.1,0.1-0.3,0.2-0.4c0.1-0.2,0.1-0.3,0.1-0.5
	c0-0.1,0-0.2,0-0.3s-0.1-0.2-0.1-0.3c-0.1-0.1-0.2-0.2-0.3-0.2c-0.1,0-0.2-0.1-0.3-0.1c-0.1,0-0.2,0-0.3,0c-0.1,0-0.2,0.1-0.3,0.2
	c-0.1,0.1-0.1,0.2-0.2,0.3v0.1v0.1c0,0.2,0,0.3,0.1,0.5c0,0.1,0.1,0.3,0.1,0.4c0.1,0.2,0.1,0.3,0.2,0.4l-0.2-0.2
	c-0.3-0.3-0.5-0.6-0.6-1c-0.2-0.8,0.5-1.6,1.4-1.4c0.7,0.1,1,0.7,0.9,1.4c-0.1,0.4-0.2,0.7-0.5,1C27.9,52.4,27.4,52.9,27.3,53
	L27.3,53z M32.5,53L32.5,53c-0.1-0.1-0.6-0.5-0.6-0.6c-0.3-0.3-0.4-0.6-0.5-1c-0.1-0.7,0.2-1.3,0.9-1.4c0.8-0.2,1.6,0.6,1.4,1.4
	c-0.1,0.4-0.3,0.7-0.6,1l-0.2,0.2c0.1-0.1,0.1-0.2,0.2-0.4c0.1-0.1,0.1-0.3,0.1-0.4c0.1-0.2,0.1-0.3,0.1-0.5v-0.1v-0.1
	c0-0.1-0.1-0.2-0.2-0.3c-0.1-0.1-0.2-0.1-0.3-0.2c-0.1,0-0.2,0-0.3,0s-0.2,0-0.3,0.1c-0.1,0-0.2,0.1-0.3,0.2
	c-0.1,0.1-0.1,0.2-0.1,0.3s0,0.2,0,0.3c0,0.2,0.1,0.3,0.1,0.5c0,0.1,0.1,0.3,0.2,0.4c0.1,0.2,0.2,0.4,0.3,0.5
	C32.5,52.9,32.5,52.9,32.5,53L32.5,53z M32.5,52.8c-0.1-0.2-0.2-0.3-0.3-0.5c-0.1-0.1-0.1-0.3-0.2-0.4c0-0.2-0.1-0.3-0.1-0.5
	s0-0.3,0.1-0.5c0.1-0.1,0.3-0.2,0.4-0.2h0.1h0.1h0.1c0.1,0,0.2,0.1,0.2,0.1C33,50.9,33,50.9,33,51v0.1v0.1c0,0.2,0,0.3-0.1,0.5
	c0,0.1-0.1,0.3-0.1,0.4c-0.1,0.3-0.2,0.4-0.2,0.6L32.5,52.8L32.5,52.8z M36.6,57.4c-0.1,0-0.1,0-0.2,0c-0.1,0-0.1,0-0.2-0.1L36,57.2
	c0-0.1-0.1-0.2-0.1-0.4c0-0.3,0.2-0.5,0.4-0.6c0.1,0,0.2,0,0.3,0.1h0.1c0,0,0,0,0,0.1c0,0,0,0.1,0.1,0.1c0,0.1,0,0.2,0,0.3
	c0,0,0,0.1,0,0.2c0,0,0,0.1-0.1,0.1C36.6,57.3,36.6,57.4,36.6,57.4z M45.6,52.8c0.1,0,0.2,0,0.3,0.1c0.2,0.1,0.4,0.2,0.5,0.4
	c0,0.1,0,0.2,0,0.3s-0.1,0.2-0.1,0.2c-0.1,0-0.2,0-0.3,0s-0.2-0.1-0.2-0.2c-0.1-0.1-0.2-0.3-0.2-0.5C45.5,53,45.5,52.9,45.6,52.8
	L45.6,52.8z M49.6,47c-0.1,0-0.2-0.1-0.3-0.2c-0.1-0.1-0.2-0.1-0.3-0.2c-0.1-0.1-0.1-0.2-0.1-0.3s0-0.1,0.1-0.1h0.1l0.1,0.1l0.1,0.1
	c0.1,0.1,0.1,0.2,0.2,0.3C49.6,46.8,49.6,46.9,49.6,47L49.6,47z M53.9,41.7c0.2,0,0.3,0.1,0.4,0.2c0.1,0.1,0.2,0.2,0.2,0.4
	c0,0.1,0,0.2,0,0.2v0.1c0,0,0,0,0,0.1c0,0,0,0.1-0.1,0.1c0,0.1-0.1,0.1-0.2,0.1c-0.1,0-0.2,0-0.2,0h-0.1c0,0-0.1,0-0.1-0.1
	c-0.1,0-0.1-0.1-0.2-0.2c-0.1-0.1-0.2-0.3-0.3-0.4c-0.1-0.2-0.1-0.4-0.1-0.6C53.4,41.6,53.6,41.6,53.9,41.7z M29.9,48.4
	c-10.1-0.1-18.4-8.3-18.4-18.5s8.3-18.4,18.4-18.4s18.4,8.3,18.4,18.4C48.4,40.1,40.1,48.4,29.9,48.4L29.9,48.4z M29.9,11.7
	c-10,0-18.2,8.2-18.2,18.2s8.2,18.2,18.2,18.2s18.2-8.2,18.2-18.2S40,11.7,29.9,11.7z M55.9,19.2c0,0-0.1-0.1-0.2-0.1
	c-0.1,0-0.2,0-0.2,0c-0.1,0-0.2,0-0.3,0.1c-0.2,0.1-0.4,0.2-0.6,0.3c-0.1,0-0.2,0.1-0.4,0.1c-0.1,0-0.3-0.1-0.4-0.1
	c-0.3-0.2-0.5-0.4-0.6-0.7c0-0.1,0-0.1-0.1-0.2c0.3,0,0.5-0.1,0.8-0.1c0.2,0,0.3-0.1,0.5-0.2c0.1-0.1,0.1-0.1,0.2-0.2
	c0.1-0.1,0.1-0.2,0.1-0.3c0-0.1,0-0.2,0-0.3v-0.1c0,0,0,0,0-0.1c0,0,0-0.1-0.1-0.1c-0.1-0.1-0.2-0.2-0.3-0.2s-0.2,0-0.3,0l-0.2,0.1
	l-0.1,0.1c-0.1,0.1-0.2,0.1-0.2,0.2c-0.1,0.1-0.2,0.3-0.3,0.5s-0.1,0.4-0.1,0.6c0,0.1,0,0.1,0,0.2l0,0c-0.3,0-0.6,0-0.8,0h-0.9
	c0.3-0.1,0.5-0.2,0.7-0.4c0.5-0.4,0.9-1,1.1-1.6c0.1-0.4,0.1-0.9-0.1-1.3v-0.5c0,0,0.2-1.4-0.8-1.7c-0.5-0.2-0.6-0.4-0.6-0.4
	c-0.2,0.5-0.1,1.1,0.3,1.5c-0.1,0-0.2-0.1-0.3-0.1l0,0c-0.8-0.3-1.8,0.2-2.2,1c-0.3,0-1.2,0-1.4,0.7c-0.1,0.5-0.3,0.6-0.3,0.6
	c1.2,0.3,1.5-0.8,1.5-0.8c0-0.1,0.1-0.1,0.1-0.2c-0.1,0.2-0.1,0.4,0,0.6c0.1,0.6,0.5,1,1.1,1.2c0.3,0.1,0.6,0,0.8-0.2l0,0
	c0,0,1.1-0.6,0.4-1.5c-0.4-0.6-0.4,0.1-0.3,0.3c0,0-0.4-0.2-0.4,0.5c0,0.3-0.3,0.4-0.5,0.4c-0.4,0-0.6-0.4-0.7-0.7
	c-0.2-1.1,1.2-1.7,2.1-1.2c0.9,0.5,1.1,1.4,0.8,2.3c-0.2,0.5-0.5,0.9-0.9,1.2c-0.1,0-0.4,0.2-0.6,0.4c-0.6-0.3-1.2-0.3-1.8-0.1
	c-0.6,0.2-1.1,0.7-1.4,1.3c-0.1,0.2-0.2,0.4-0.2,0.7c-0.2-0.5-0.4-1.1-0.7-1.6c-0.2-0.3-0.4-0.6-0.5-0.9c0.5-0.8,0.5-1.4,0-2.5
	c-0.2-0.5,0-0.9,0-0.9c-1.2,0.7-1,1.9-0.6,2.7c-0.2-0.3-0.4-0.6-0.7-0.9c0.1-0.4,0.1-0.7,0.1-1.1c0-0.3,0-0.6-0.1-0.9
	c0,0-0.6,0.7-0.4,1.4l0,0c-0.1-0.2-0.3-0.5-0.5-0.9s-0.5-0.9-0.6-1.4c-0.2-0.5-0.4-1.2-0.3-1.8c0-0.3,0.1-0.6,0.2-0.9
	c0.1-0.3,0.3-0.5,0.5-0.7c0.1-0.1,0.2-0.2,0.3-0.2c0.1-0.1,0.2-0.1,0.3-0.2c0.2-0.1,0.4-0.1,0.7-0.2c0.3,0,0.7,0,1,0
	c0.2,0,0.4,0,0.4,0s-0.1-0.1-0.4-0.1c-0.3-0.1-0.7-0.1-1,0c-0.2,0-0.5,0.1-0.7,0.2c-0.1,0-0.3,0.1-0.4,0.2c-0.1,0.1-0.2,0.2-0.4,0.3
	c-0.2,0.2-0.4,0.5-0.5,0.8s-0.2,0.6-0.2,1c0,0.3,0,0.7,0.1,1s0.2,0.6,0.3,0.9c0.2,0.5,0.4,0.9,0.7,1.4l0,0c-0.9-1.3-1.7-2.8-1.3-4.3
	c0.6-1.8,3.1-2.4,4.6-1.5c1.5,0.9,1.8,3.5,0,4.3C47.6,14,47.4,14,47.3,14c-0.4-0.2-0.6-0.5-0.7-0.9c-0.1-0.9-0.9-0.6-0.8,0
	c0.1,0.3,0.6,0.8,1.2,1c-0.7,0-1.4-0.4-1.7-1c-0.2-0.4-0.2-0.9,0-1.3c0.3-0.4,1-0.6,1.6-0.4c0.9,0.3,0.8,0.8,0.8,0.8
	c0.5-0.6-0.4-1-0.4-1l0,0c0,0,0.7-0.4,0.1-0.8c-0.6-0.4-2.1,1.1-2.1,1.1l0,0C45.1,11.7,45,12,45,12.3c-0.1,0.9,0.5,1.8,1.4,2.1
	c1.6,0.5,3.2-0.9,3.1-2.5c0-0.3-0.1-0.6-0.2-0.8l0.1,0.2c0.1,0.3,0.2,0.5,0.3,0.8v0.1v0.1c0,0,0,0.2,0.1,0.3c0,0.2,0,0.4,0,0.7v0.1
	v0.1c0,0,0,0,0,0.1h-0.1c-0.1,0-0.2,0.1-0.3,0.2c-0.1,0.1-0.2,0.2-0.3,0.3c0,0.1-0.1,0.1-0.1,0.2c0,0.1,0,0.2,0,0.2
	c0,0.1,0.1,0.2,0.1,0.2l0.1,0.1h0.1c0.1,0,0.2-0.1,0.2-0.1c0.1-0.1,0.1-0.1,0.1-0.2c0.1-0.1,0.1-0.2,0.2-0.4c0-0.1,0.1-0.3,0.1-0.4
	l0,0c0.2-0.1,0.3-0.1,0.5-0.1s0.4-0.1,0.6-0.1c0.2-0.1,0.3-0.2,0.4-0.3c0.1-0.1,0.1-0.3,0-0.4c0-0.1-0.1-0.1-0.1-0.2
	c0,0,0,0-0.1-0.1v0.1c0,0.1,0.1,0.1,0.1,0.2c0,0.1,0,0.1,0,0.2c0,0.1,0,0.1,0,0.2c-0.1,0.1-0.2,0.2-0.4,0.2
	c-0.2,0.1-0.4,0.1-0.6,0.1l-0.4,0.1v-0.1v-0.1c0-0.2,0-0.5,0-0.7c0-0.1,0-0.2-0.1-0.3v-0.1v-0.1c-0.1-0.3-0.2-0.5-0.4-0.8
	c-0.1-0.2-0.2-0.3-0.2-0.3c-0.3-0.8-0.9-1.5-1.7-1.8c0,0,0.1-0.1,0.4,0c0.7,0.2,1.2,1.1,3,0.4c0,0-0.5-0.1-0.9-0.7
	c-0.4-0.6-1.5-0.7-2.3-0.3c-0.1,0.1-0.5,0.5-0.5,0.5c-0.3-1.1-0.5-1.1-0.7-1.2c-0.8-0.1-1.7,0.1-2.4,0.4c-0.9,0.4-1.6,1.1-1.7,2.1
	l0,0l0,0c-0.1,0.6,0,1.2,0.1,1.6c0-0.1-0.1-0.2-0.1-0.3c-0.2-0.5-0.2-1-0.3-1.5c0-0.3,0-0.7,0.1-1c0-0.2,0.1-0.4,0.2-0.5
	c0-0.1,0.1-0.2,0.1-0.3l0.1-0.1V8.3l0.1-0.1C42.9,8.1,43,8,43.2,7.9c0.1-0.1,0.2-0.1,0.3-0.2l0.2-0.1l0.2-0.1
	c0.2-0.1,0.4-0.1,0.7-0.2l0.7-0.1l0.3-0.1l0,0v0.1v0.1c0.1,0.1,0.2,0.1,0.3,0.2H46h0.2c0.2,0,0.3-0.1,0.5-0.2
	c0.1-0.1,0.2-0.2,0.4-0.3l0.1-0.2l0.1-0.1c0.1-0.1,0.2-0.1,0.3-0.2c0.1,0,0.2,0,0.3,0s0.2,0.1,0.3,0.2s0.1,0.1,0.1,0.1l-0.1-0.1
	c-0.1-0.1-0.2-0.2-0.3-0.2s-0.2,0-0.3,0s-0.2,0.1-0.3,0.2l-0.1,0.1L46.9,7c-0.1,0.1-0.2,0.2-0.4,0.3c-0.1,0.1-0.3,0.2-0.4,0.2h-0.2
	h-0.1c-0.1,0-0.2-0.1-0.2-0.1l-0.1-0.1c0.1,0,0.2,0,0.3-0.1c0.1,0,0.2-0.1,0.3-0.2s0.2-0.2,0.3-0.3c0-0.1,0.1-0.3,0-0.4
	c0-0.1,0-0.1-0.1-0.2C46.3,6,46.2,6,46.1,6C46,6,46,6,45.9,6c-0.1,0-0.1,0-0.2,0.1c-0.3,0.2-0.5,0.5-0.5,0.8c0,0.1,0,0.2,0,0.3V7.1
	l-0.7,0.1c-0.2,0-0.5,0.1-0.7,0.2l-0.2,0.1l-0.2,0.1c-0.1,0-0.2,0.1-0.3,0.2c-0.2,0.1-0.4,0.3-0.5,0.4l-0.1,0.1c0,0,0,0,0,0.1
	l-0.1,0.1c-0.1,0.1-0.1,0.2-0.2,0.3C42.1,9,42.1,9.2,42,9.4l0,0c0.1-0.6,0.2-1.1,0.2-1.7c0-0.2,0-0.3,0-0.5c0.1-0.3,0.3-0.7,0.6-1
	c0.4-0.6,0.3-2-0.4-2.1c-0.4,0-0.8-0.3-1-0.7c-0.3,1.2,0.8,1.6,0.9,2.3c0.1,0.4,0.1,0.8-0.1,1.2l0,0c-0.1-0.6-0.3-1.1-0.7-1.5
	s-1-0.8-1.7-0.7c-0.4,0-0.7,0.1-1,0.3c-0.9,0.1-1.9-0.6-2-0.3c-0.1,0.2,0,0.5,0.2,0.6c0.5,0.6,1.5,0,1.5,0c-0.2,0.3-0.4,0.6-0.4,0.9
	C38,7.1,38.7,8,39.6,7.9c0.4-0.1,0.8-0.3,0.9-0.7c0.1-0.2,0.1-0.6,0.1-0.8c0,0-0.1-0.4-0.3-0.2c0,0-0.3,0-0.3-0.6
	c0,0-0.3,0.1-0.3,0.9s-1.1,0.6-1.1-0.2c0-0.1,0-0.3,0.1-0.4c0.3-0.8,1.3-1,2-0.6c0.4,0.2,0.8,0.6,0.9,1c0.3,0.7,0.3,1.5,0.2,2.2
	s-0.2,1.6,0,2.4c0.2,0.8,0.5,1.6,1,2.3l0.4,0.5c0.2,0.4,0.4,0.7,0.6,1c0.3,0.5,0.6,0.9,1,1.4c-0.5-0.6-1.1-1.3-1.6-1.9
	c-1-1.4-1.9-2.8-2.9-4.1l0,0l-0.2-0.2l0,0c-0.9-1.2-2-2.5-3.4-3.2c-0.8-0.5-1.6-0.6-2.4-0.5c-0.2,0-0.4,0.1-0.6,0.2
	c0.2-0.2,0.4-0.3,0.4-0.4c0.6-0.5,1.1-1.1,1.2-1.8V4l0,0l0.2,0.1l0.1,0.1c0.1,0.1,0.2,0.1,0.4,0.2c0.2,0,0.4,0,0.6,0
	c0.1,0,0.2-0.1,0.3-0.1s0.2-0.1,0.3-0.2c0.4-0.4,0.5-1.1,0.1-1.5l0,0c-0.1-0.1-0.2-0.2-0.4-0.3c-0.1,0-0.2,0-0.3,0
	c-0.1-0.2-0.2-0.3-0.4-0.4c-0.2-0.2-0.3-0.2-0.3-0.2S36,1.8,36.1,2c0.1,0.1,0.2,0.3,0.3,0.4h-0.1c-0.2,0-0.3,0.1-0.4,0.3
	c-0.1,0.1-0.2,0.3-0.2,0.4c0,0.2,0,0.3,0.1,0.4s0.2,0.2,0.4,0.2c0.1,0,0.3,0,0.4-0.1l0.1-0.1l0.1-0.1c0.1,0,0.1-0.1,0.1-0.1
	c0-0.1,0-0.2,0-0.4c0-0.1,0-0.1,0-0.2c0,0,0-0.1-0.1-0.1c0,0-0.1-0.1-0.1-0.2h0.1c0.1,0,0.2,0.1,0.3,0.2c0.2,0.2,0.3,0.5,0.2,0.7
	c0,0.2-0.1,0.5-0.3,0.6c-0.1,0.2-0.3,0.3-0.5,0.4c-0.2,0-0.3,0-0.5,0c-0.1,0-0.3-0.1-0.4-0.1c-0.1,0-0.2-0.1-0.2-0.2
	c0-0.3,0-0.6-0.1-0.8l0,0c0.7-1.4-0.4-2-0.6-2.4c-0.1-0.3-0.1-0.5-0.1-0.8c-0.4,0.6-0.5,1.2-0.4,1.6c-0.5-0.4-1.2-0.5-1.8-0.3
	c-0.8,0.2-1.3,0.9-1.4,1.6c0,0-0.1,0.1-0.1,0.2c-0.1,0.1-0.2,0.2-0.3,0.2c-0.1,0.1-0.3,0.1-0.4,0.1c-0.2,0-0.3,0-0.5-0.1l-0.1-0.1
	l-0.1-0.1c-0.1,0.1-0.2,0-0.2,0c-0.1-0.2-0.2-0.4-0.1-0.6c0-0.1,0-0.2,0.1-0.3c0-0.1,0.1-0.2,0.2-0.2c0.1-0.1,0.3-0.2,0.5-0.2
	c0.1,0,0.2,0,0.2,0.1c0.2,0.1,0.3,0.3,0.3,0.5c0,0.1,0,0.1,0,0.2l0,0l0,0c0,0,0,0,0,0.1l-0.1,0.1h-0.1h-0.1H30c0,0,0,0,0.1,0h0.2
	h0.1c0.2-0.1,0.3-0.3,0.3-0.5c0-0.3-0.1-0.5-0.4-0.6s-0.6-0.1-0.9,0.1c-0.1,0.1-0.2,0.2-0.2,0.3c-0.1,0.1-0.1,0.2-0.1,0.3
	c0,0.2,0,0.5,0.2,0.6c0.1,0.1,0.1,0.2,0.2,0.2l0.1,0.1c0,0,0.1,0,0.1,0.1c0.3,0.1,0.7,0.1,1-0.1c0.1-0.1,0.2-0.1,0.3-0.2l0,0
	c0,0.1,0,0.3,0,0.4c-0.4,0.6-0.2,1.2,0.2,1.7c0.4,0.5,0,0.7,0,0.7c0.3-0.1,0.5-0.2,0.7-0.5c0.2-0.3,0.1-0.6,0-0.8
	c0.5,0.3,1.1,0.2,1.6-0.2c0.3-0.3,0.5-0.6,0.4-1l0,0l0,0c-0.1-0.3-0.4-1.2-1.3-0.7c0.1,0.1,0.3,0.2,0.4,0.4c0,0.1-0.1,0.2,0,0.3
	c0.1,0.3,0.4,0.7,0.4,0.7c-0.5,0.5-1.2,0.4-1.7-0.1c-0.8-1,0.2-2.2,1.3-2.3l0,0c1.3,0,2.2,1.4,1.8,2.6c-0.2,0.6-0.6,1.1-1.1,1.5
	c-0.1,0.1-0.6,0.5-1,0.7c-0.2,0.1-0.3,0.1-0.3,0.2l0,0c-0.1-0.1-0.2-0.2-0.3-0.2c-0.2-0.1-0.4-0.2-0.6-0.2c-0.1,0-0.2,0-0.4,0.1
	c-0.1,0-0.2,0.1-0.3,0.2c-0.2,0.1-0.4,0.3-0.5,0.5c-0.1,0.2-0.2,0.3-0.3,0.5c0.1,0.2,0,0.4-0.1,0.5c0-0.2-0.1-0.3-0.2-0.5
	s-0.2-0.3-0.3-0.5C29.3,7,29.3,7,29.2,6.9c0.1,0,0.3,0,0.4,0c0.2,0,0.3,0,0.5-0.1s0.3-0.2,0.5-0.3c0.2,0,0.3-0.2,0.3-0.4
	s0-0.5-0.1-0.7c-0.1-0.1-0.1-0.2-0.2-0.3C30.5,5,30.4,5,30.3,4.9c-0.2-0.1-0.4,0-0.6,0.1c-0.1,0-0.2,0.1-0.2,0.2
	c-0.1,0.1-0.1,0.2-0.1,0.3c0,0.2,0,0.4,0.1,0.5s0.2,0.2,0.3,0.3h0.1H30c0.1,0,0.1,0,0.1,0h0.1l0,0l0,0l0,0c0,0,0,0,0-0.1h-0.1l0,0
	l0,0l0,0H30h-0.1h-0.1h-0.1c-0.1,0-0.1,0-0.1-0.1L29.5,6c-0.1-0.1-0.1-0.3-0.1-0.4s0.1-0.1,0.1-0.2c0.1-0.1,0.1-0.1,0.2-0.2
	c0.2-0.2,0.5-0.1,0.8,0.1c0.1,0.1,0.1,0.1,0.2,0.2c0.1,0.3,0.2,0.6,0,0.8c0,0.1-0.1,0.2-0.2,0.2c-0.1,0.1-0.3,0.2-0.4,0.3
	c-0.3,0.1-0.5,0.1-0.8,0.1h-0.1l-0.3-0.2c-0.1-0.1-0.2-0.1-0.3-0.2c-0.1,0-0.2-0.1-0.4-0.1c-0.2,0-0.4,0-0.6,0.2
	c-0.1,0.1-0.2,0.1-0.3,0.2l0,0c0,0-0.1-0.1-0.3-0.2c-0.4-0.3-0.9-0.7-1-0.7c-0.5-0.4-0.9-0.9-1.1-1.5c-0.3-1.2,0.6-2.6,1.8-2.6l0,0
	c1.1,0,2.1,1.3,1.3,2.3c-0.4,0.5-1.2,0.6-1.7,0.1c0,0,0.4-0.4,0.5-0.8c0.2-0.2,0.1-0.3,0-0.3c0.2-0.2,0.3-0.3,0.5-0.4
	c-0.9-0.5-1.2,0.4-1.3,0.7l0,0l0,0c-0.1,0.4,0.1,0.8,0.4,1c0.5,0.4,1.1,0.4,1.6,0.2c-0.2,0.2-0.2,0.5,0,0.8s0.3,0.4,0.7,0.5
	c0,0-0.4-0.3,0-0.7c0.4-0.5,0.7-1,0.2-1.7l0,0c0.2-0.9-0.4-1.9-1.4-2.2c-0.6-0.2-1.2-0.1-1.8,0.3c0.1-0.5,0-1-0.4-1.6
	c0,0.3,0,0.6-0.1,0.8c-0.2,0.4-1.2,1-0.6,2.4l0,0c-0.1,0.3-0.1,0.5-0.1,0.8c-0.1,0.1-0.2,0.1-0.2,0.2c-0.1,0.1-0.2,0.1-0.4,0.1
	c-0.2,0-0.3,0-0.5,0S23,4.1,22.8,4c-0.2-0.2-0.3-0.4-0.3-0.6c0-0.3,0.1-0.5,0.2-0.7c0.1-0.1,0.2-0.2,0.3-0.2h0.1L23,2.7
	c0,0,0,0.1-0.1,0.1c0,0.1,0,0.1,0,0.2c0,0.1,0,0.2,0,0.4c0,0.1,0,0.1,0.1,0.2c0,0,0,0.1,0.1,0.1l0.1,0.1c0.1,0.1,0.3,0.1,0.4,0.1
	c0.2,0,0.3-0.1,0.4-0.2s0.1-0.3,0.1-0.4c0-0.2-0.1-0.3-0.2-0.4c-0.1-0.1-0.3-0.2-0.4-0.3h-0.1c0.1-0.2,0.2-0.3,0.3-0.4
	s0.2-0.6,0.2-0.6s-0.1,0.1-0.3,0.2c-0.1,0.1-0.2,0.3-0.4,0.4c-0.1,0-0.2,0-0.3,0c-0.2,0-0.3,0.1-0.4,0.3c-0.2,0.2-0.3,0.5-0.3,0.8
	s0.2,0.5,0.4,0.7c0.1,0.1,0.2,0.2,0.3,0.2s0.2,0.1,0.3,0.1c0.2,0,0.4,0,0.6,0c0.1,0,0.3-0.1,0.4-0.2L24.3,4l0.1-0.1l0,0v0.2
	c0.1,0.7,0.7,1.4,1.2,1.8c0,0,0.2,0.2,0.4,0.3c-0.2-0.1-0.4-0.1-0.6-0.2c-0.8-0.1-1.6,0-2.3,0.4c-1.4,0.7-2.5,2-3.5,3.2l0.1-0.1
	l-0.2,0.3l0,0l0,0c-1,1.4-1.9,2.8-2.9,4.1c-0.4,0.6-1.1,1.4-1.6,1.9c0.3-0.5,0.7-0.9,1-1.4c0.2-0.3,0.4-0.6,0.6-1l0.4-0.5
	c0.4-0.7,0.8-1.5,1-2.3c0.2-0.8,0.1-1.6,0-2.4s-0.1-1.6,0.2-2.3c0.2-0.4,0.5-0.8,0.9-1c0.8,0,1.8,0.2,2.1,1c0.1,0.1,0.1,0.3,0.1,0.4
	c-0.1,0.8-1.2,1-1.2,0.2s-0.3-0.9-0.3-0.9c-0.1,0.5-0.3,0.5-0.3,0.5c-0.2-0.2-0.3,0.2-0.3,0.2c-0.1,0.2,0,0.6,0.1,0.8
	c0.2,0.4,0.5,0.6,0.9,0.7c1,0.2,1.6-0.8,1.5-1.7c0-0.3-0.2-0.7-0.4-0.9c0,0,1,0.6,1.5,0c0.1-0.1,0.3-0.3,0.2-0.6S21.9,5,21,4.9
	c-0.3-0.2-0.6-0.3-1-0.3c-0.7,0-1.3,0.3-1.7,0.7s-0.6,0.9-0.7,1.5l0,0c-0.2-0.4-0.2-0.8-0.1-1.2c0.2-0.7,1.3-1.2,0.9-2.3
	c-0.2,0.4-0.6,0.7-1,0.7c-0.8,0.1-0.9,1.5-0.4,2.1c0.2,0.3,0.4,0.7,0.6,1c0,0.2,0,0.3,0,0.5c0,0.6,0.1,1.1,0.2,1.7l0,0
	c0-0.2-0.1-0.4-0.2-0.6c0-0.1-0.1-0.2-0.2-0.3l-0.1-0.1c0,0,0,0,0-0.1l-0.1-0.1c-0.1-0.2-0.3-0.3-0.5-0.4c-0.1-0.1-0.2-0.1-0.3-0.2
	l-0.2-0.1L16,7.3c-0.2-0.1-0.5-0.2-0.7-0.2h-0.6h-0.3c0-0.1,0-0.2,0-0.3c0-0.2-0.1-0.4-0.3-0.6C14.1,6.1,14,6,13.9,6s-0.1,0-0.2-0.1
	c-0.1,0-0.1,0-0.2,0c-0.1,0-0.1,0.1-0.2,0.1c0,0.1,0,0.1-0.1,0.2c0,0.1,0,0.3,0,0.4c0.1,0.1,0.1,0.2,0.3,0.3C13.7,7,13.8,7.1,14,7.1
	l0.3,0.1c0,0,0,0.1-0.1,0.1c-0.1,0.1-0.1,0.1-0.2,0.1h-0.1h-0.2c-0.2,0-0.3-0.1-0.4-0.2c-0.1,0-0.2-0.1-0.4-0.2l-0.2-0.2l-0.1-0.1
	c-0.1-0.1-0.2-0.1-0.3-0.2c-0.1,0-0.2,0-0.3,0c-0.1,0.1-0.2,0.2-0.3,0.3l-0.1,0.1c0,0,0,0,0.1-0.1s0.2-0.2,0.3-0.2s0.2,0,0.3,0
	s0.2,0.1,0.3,0.2l0.1,0.1L12.9,7c0.1,0.1,0.2,0.2,0.4,0.3c0.1,0.1,0.3,0.2,0.5,0.2h0.1H14c0.1,0,0.2-0.1,0.3-0.2V7.2c0,0,0,0,0-0.1
	l0,0l0.3,0.1l0.7,0.1c0.2,0,0.4,0.1,0.7,0.2l0.2,0.1l0.2,0.1c0.1,0,0.2,0.1,0.3,0.2C16.9,8,17,8.2,17.2,8.3l0.1,0.1v0.1l0.1,0.1
	c0,0.1,0.1,0.2,0.1,0.3c0.1,0.2,0.1,0.4,0.2,0.5c0.1,0.3,0.1,0.7,0.1,1c0,0.5-0.1,1-0.3,1.5c0,0.1-0.1,0.3-0.1,0.3
	c0.1-0.4,0.3-1,0.2-1.6l0,0l0,0c-0.2-1-0.9-1.7-1.7-2.1c-0.7-0.3-1.6-0.5-2.4-0.4c-0.2,0-0.4,0.1-0.6,0.1c0,0-0.3-0.4-0.5-0.5
	c-0.8-0.4-1.9-0.3-2.3,0.3C9.7,8.6,9.2,8.7,9.2,8.7c1.8,0.6,2.3-0.2,3-0.4c0.3-0.1,0.4,0,0.4,0c-0.8,0.3-1.5,1-1.8,1.8
	c0,0-0.1,0.1-0.2,0.3c-0.2,0.2-0.3,0.5-0.4,0.8v0.1v0.1c0,0.1,0,0.2-0.1,0.3c0,0.2-0.1,0.5,0,0.7v0.1v0.1l-0.4-0.1
	c-0.2,0-0.4-0.1-0.6-0.1c-0.2-0.1-0.3-0.1-0.4-0.3c0,0-0.1-0.1,0-0.2c0-0.1,0-0.1,0-0.2c0-0.1,0.1-0.1,0.1-0.2v-0.1c0,0,0,0-0.1,0.1
	c-0.1,0.1-0.1,0.1-0.1,0.2c-0.1,0.1-0.1,0.3,0,0.4c0.1,0.1,0.2,0.2,0.4,0.3c0.2,0.1,0.4,0.1,0.6,0.1s0.3,0.1,0.5,0.1l0,0
	c0,0.1,0.1,0.3,0.1,0.4c0,0.1,0.1,0.3,0.2,0.4c0,0.1,0.1,0.1,0.1,0.2c0.1,0.1,0.1,0.1,0.2,0.1h0.1c0,0,0.1,0,0.1-0.1
	c0.1-0.1,0.1-0.1,0.1-0.2c0-0.1,0-0.2,0-0.2c0-0.1-0.1-0.1-0.1-0.2c-0.1-0.1-0.2-0.2-0.3-0.3s-0.2-0.1-0.3-0.2h-0.1c0,0,0,0,0-0.1
	v-0.1v-0.1c0-0.2,0-0.4,0-0.7c0-0.1,0-0.2,0.1-0.3c0-0.1,0-0.1,0-0.1V11c0.1-0.3,0.2-0.5,0.3-0.8l0.2-0.1c-0.1,0.3-0.1,0.6-0.2,0.8
	c-0.1,1.6,1.5,3.1,3.1,2.5c0.9-0.3,1.5-1.2,1.4-2.1c0-0.3-0.2-0.6-0.3-0.8l0,0c0,0-1.5-1.5-2.1-1.1c-0.7,0.4,0.1,0.8,0.1,0.8l0,0
	c0,0-0.9,0.4-0.4,1c0,0-0.1-0.5,0.8-0.8c0.6-0.2,1.3-0.1,1.6,0.4c0.2,0.4,0.2,0.9,0,1.3c-0.3,0.6-1,1-1.7,1c0.6-0.2,1.1-0.7,1.2-1
	c0.1-0.6-0.6-0.9-0.8,0c-0.1,0.4-0.3,0.8-0.7,0.9c-0.1,0-0.3-0.1-0.4-0.1c-1.9-0.8-1.5-3.3,0-4.3s4.1-0.3,4.6,1.5
	c0.5,1.5-0.4,3-1.3,4.3l0,0c0.3-0.4,0.5-0.9,0.7-1.4c0.1-0.3,0.2-0.6,0.3-0.9c0.1-0.3,0.1-0.7,0.1-1s-0.1-0.7-0.2-1
	s-0.3-0.6-0.5-0.8C16,9.2,15.9,9.1,15.7,9c-0.1-0.1-0.2-0.1-0.4-0.2c-0.2-0.1-0.5-0.1-0.7-0.2c-0.3,0-0.7,0-1,0
	c-0.2,0-0.4,0.1-0.4,0.1h0.4c0.3,0,0.7,0,1,0c0.2,0,0.5,0.1,0.7,0.2c0.1,0,0.2,0.1,0.3,0.2c0.1,0.1,0.2,0.2,0.3,0.2
	c0.2,0.2,0.4,0.5,0.5,0.7c0.1,0.3,0.2,0.6,0.2,0.9c0,0.7-0.1,1.3-0.3,1.8c-0.2,0.5-0.4,0.9-0.6,1.4c-0.2,0.4-0.4,0.7-0.5,0.9l0,0
	c0.3-0.8-0.4-1.4-0.4-1.4c-0.3,0.9,0,2,0,2c-0.2,0.3-0.4,0.6-0.7,0.9c0.4-0.8,0.6-2-0.6-2.7c0,0,0.2,0.4,0,0.9
	c-0.4,1.2-0.4,1.7,0.1,2.5c-0.2,0.3-0.4,0.6-0.5,0.9c-0.3,0.5-0.5,1-0.7,1.6c0-0.2-0.1-0.5-0.2-0.7c-0.3-0.6-0.8-1.1-1.4-1.3
	c-0.6-0.2-1.2-0.2-1.8,0.1c-0.2-0.1-0.6-0.4-0.6-0.4c-0.5,0.2-0.9-0.3-1.1-0.7c-0.3-0.8,0-1.8,0.8-2.3s2.2,0.1,2.1,1.2
	c-0.1,0.4-0.3,0.7-0.7,0.7c-0.2,0-0.5-0.2-0.5-0.4c0-0.7-0.4-0.5-0.4-0.5c0-0.2,0.1-0.9-0.3-0.3c-0.6,0.9,0.4,1.5,0.4,1.5l0,0
	c0.2,0.2,0.5,0.2,0.8,0.2c0.6-0.1,1-0.6,1.1-1.2c0-0.2,0-0.4,0-0.6c0,0.1,0.1,0.1,0.1,0.2c0,0,0.4,1.1,1.5,0.8c0,0-0.2-0.1-0.3-0.6
	c-0.2-0.7-1.1-0.7-1.4-0.7c-0.4-0.8-1.3-1.2-2.2-1l0,0c-0.1,0-0.2,0.1-0.3,0.1c0.3-0.4,0.4-1,0.3-1.5c0,0-0.1,0.3-0.6,0.4
	c-0.9,0.4-0.8,1.8-0.8,1.8V15c-0.2,0.4-0.2,0.9-0.1,1.3c0.2,0.6,0.5,1.2,1.1,1.6c0.2,0.2,0.5,0.3,0.7,0.4c-0.2,0-0.5,0-0.9,0
	s-0.5,0-0.8,0l0,0v-0.2c0-0.2-0.1-0.4-0.1-0.6c-0.1-0.2-0.2-0.3-0.3-0.5c-0.1-0.1-0.1-0.1-0.2-0.2l-0.1-0.1l-0.3,0.1
	c-0.1,0-0.2,0-0.3,0S5.4,16.9,5.3,17l-0.1,0.1v0.1v0.1c0,0.1,0,0.2,0,0.3c0,0.1,0,0.2,0.1,0.3c0.1,0.1,0.1,0.2,0.2,0.2
	c0.1,0.1,0.3,0.2,0.5,0.2c0.3,0.1,0.5,0.1,0.8,0.1c0,0.1,0,0.1-0.1,0.2c-0.1,0.3-0.3,0.5-0.6,0.7c-0.1,0.1-0.2,0.1-0.4,0.1
	c-0.1,0-0.3,0-0.4-0.1c-0.2,0-0.4-0.1-0.5-0.2c-0.1,0-0.2-0.1-0.3-0.1s-0.2,0-0.2,0c-0.1,0-0.2,0.1-0.3,0.2l-0.1,0.1v-0.1
	c0.1,0,0.2-0.1,0.3-0.1c0.2,0,0.3,0,0.5,0.1c0.2,0.1,0.4,0.2,0.6,0.3c0.1,0.1,0.3,0.1,0.4,0.1c0.2,0,0.3-0.1,0.4-0.1
	c0.1-0.1,0.3-0.2,0.4-0.3c0.1-0.1,0.2-0.3,0.3-0.4c0-0.1,0-0.2,0.1-0.3l0,0c0.3,0,0.6,0,0.8,0s0.6,0,0.9-0.1
	c-0.3,0.2-0.5,0.4-0.7,0.7C7.2,19.3,7,19.8,7,20.3v0.1C7,20.9,6.9,21,6.9,21c0.5-0.2,0.7-0.5,0.8-0.7c0.1,0.9,0.8,1.7,1.8,1.6
	c0.7-0.1,1.2-0.6,1.2-1.2c0-0.3-0.1-0.5-0.2-0.7l0,0c0,0-0.6-1-1.4-0.5c-0.6,0.4-0.1,1-0.1,1c0.1,0,0-0.4,0.3-0.5c0,0,0,0.4,0.3,0.2
	c0.3-0.1,0.6-0.1,0.8,0.2c0,0.1,0,0.2,0,0.3c-0.1,0.5-0.5,0.8-0.9,0.9c-1,0.1-1.7-1.1-1.2-2c0.5-1,1.7-1.2,2.6-0.6
	c0.4,0.3,0.8,0.7,0.9,1.1c0.1,0.2,0.2,0.5,0.2,0.8l0,0c-0.1,0.3-0.2,0.6-0.3,0.9c-0.2,1-0.4,2-0.4,3.1c0,0.1,0,0.6,0,1.2l0,0
	c0,0.6,0,1.3,0.1,1.3s0-1.6,0-1.7v-0.2c0-0.1,0.1-0.3,0.1-0.5s0.1-0.6,0.2-0.9l0,0c0.1-0.3,0.2-0.5,0.3-0.8s0.3-0.8,0.5-1.2
	c0,0,0-0.1,0.1-0.2l0.1-0.2l0.1-0.3c0.1-0.2,0.2-0.4,0.3-0.7c0.2-0.5,0.5-0.9,0.8-1.4l0.2-0.3c0-0.1,0.1-0.1,0.1-0.2l0.1-0.2
	l0.2-0.3l0.3-0.3c0.2-0.2,0.4-0.5,0.5-0.7c0.1-0.1,0.2-0.2,0.3-0.3l0.3-0.3l0.6-0.6l0.6-0.5c0.7-0.6,1.4-1.2,2.1-1.7l0.4-0.3
	c0.1-0.1,0.3-0.2,0.4-0.3s0.3-0.2,0.4-0.2c0.1-0.1,0.2-0.1,0.3-0.2l0.4-0.3c0.1,0,0.1-0.1,0.1-0.1c-0.1,0-0.1,0-0.2,0.1l-0.1,0.1
	l-0.3,0.2l-0.4,0.2c-0.1,0.1-0.3,0.2-0.4,0.3l-0.5,0.3c-0.8,0.5-1.5,1.1-2.1,1.7l-0.6,0.5c-0.2,0.2-0.4,0.4-0.6,0.6l-0.3,0.3
	c-0.1,0.1-0.2,0.2-0.3,0.3c-0.2,0.2-0.4,0.4-0.6,0.7l-0.3,0.3c-0.1,0.1-0.2,0.2-0.3,0.4l-0.1,0.2L14,18.9l-0.1,0.2
	c-0.3,0.5-0.6,0.9-0.8,1.4c-0.1,0.2-0.2,0.5-0.3,0.7l-0.1,0.3c0,0,0,0.1-0.1,0.2c0,0.1,0,0.1-0.1,0.2c-0.2,0.4-0.3,0.8-0.4,1.2
	c-0.2,0.6-0.3,1.2-0.5,1.8c0,0.1,0,0.1,0,0.2l0,0c0,0.1,0,0.1,0,0.2v-0.1l0,0c0.1-0.6,0.1-1.2,0.2-1.8c0.3-1.6,0.7-3.1,1.5-4.5
	c0.3-0.6,0.7-1.2,1.1-1.7c0.4-0.3,1.1-0.9,1.2-1c0.5-0.5,0.9-1,1.3-1.6c0.5-0.6,2-0.9,2.3-1.1c0.3-0.2,0.6-0.6,0-0.8
	S17.3,14,17.3,14l-0.1,0.1l0.7-1c0,0,0.1-0.1,0.4-0.4s0.6-0.6,1-1c0.2-0.2,0.5-0.4,0.8-0.6c0.3-0.2,0.6-0.4,1-0.5h0.1h0.1h0.2h0.4
	c0.2,0,0.4,0,0.5,0l0,0c-0.1,0.2-0.3,0.4-0.3,0.6c0,0.1,0,0.2,0,0.3s0.1,0.2,0.2,0.3s0.2,0.2,0.3,0.2c0.1,0.1,0.3,0.1,0.4,0
	c0.1,0,0.2-0.1,0.3-0.2c0.1-0.1,0.1-0.2,0.1-0.4c0-0.1,0-0.3-0.1-0.4c0-0.1-0.1-0.2-0.2-0.3s-0.2-0.2-0.3-0.2h-0.1h-0.1l0,0
	c0.1-0.1,0.2-0.1,0.2-0.2h0.1H23c0.1,0,0.2,0,0.3,0c0.2,0,0.3,0,0.5,0.1c0.1,0.1,0.3,0.2,0.4,0.2c0.1,0.1,0.2,0.2,0.3,0.3l0.2,0.1
	c0.1,0,0.1,0.1,0.2,0.1h0.2h0.2c0.1,0,0.2,0,0.3-0.1c0.1-0.1,0.2-0.1,0.3-0.2l0.1-0.1h-0.1c-0.1,0.1-0.2,0.2-0.3,0.2
	c-0.1,0-0.2,0.1-0.3,0.1h-0.1c-0.1,0-0.1,0-0.2,0l-0.2-0.1l-0.1-0.1c-0.1-0.1-0.2-0.2-0.3-0.3c-0.1-0.1-0.3-0.2-0.4-0.3
	c-0.2-0.1-0.3-0.1-0.5-0.1c-0.1,0-0.2,0-0.3,0h-0.1c0,0-0.1,0-0.1,0.1c-0.1,0.1-0.2,0.2-0.3,0.2l0,0c-0.2,0-0.4-0.1-0.6-0.1h-0.2
	h-0.2h-0.2h-0.2c-0.4,0.1-0.7,0.3-1,0.5s-0.5,0.4-0.8,0.6c-0.4,0.3-0.7,0.7-1,1l-0.2,0.2c0.6-0.8,1.2-1.7,1.8-2.5
	c0.1-0.2,0.2-0.3,0.4-0.5l0.3-0.4l0,0c0.8-1,1.7-2,2.8-2.5c0.6-0.3,1.4-0.5,2.1-0.4c0.1,0,0.8,0.2,1.3,0.3l0.2,0.1
	c-0.3,0.1-0.8,0.6-0.8,0.6c-0.3,0.3-0.6,0.7-0.6,1.1c-0.1,0.9,0.7,1.8,1.6,1.7c1,0,1.6-0.9,1.5-1.9c-0.1-0.4-0.3-0.8-0.6-1.1
	c-0.1,0-0.6-0.4-0.8-0.5l0.3-0.2c0.2-0.1,0.3-0.1,0.5-0.1c0.1,0,0.2,0,0.3,0.1c0.1,0,0.2,0.1,0.3,0.2c0.2,0.1,0.4,0.3,0.5,0.5
	c0.1,0.1,0.2,0.3,0.3,0.5c0.1,0.4,0.2,0.6,0.2,0.6S30,8,30.2,7.8c0.1-0.2,0.2-0.3,0.3-0.5c0.2-0.2,0.4-0.4,0.6-0.5
	c0.1-0.1,0.2-0.1,0.3-0.2c0.1,0,0.2-0.1,0.3-0.1c0.2,0,0.4,0,0.5,0.1l0.3,0.2c-0.2,0-0.8,0.4-0.8,0.5c-0.3,0.3-0.6,0.7-0.6,1.1
	c-0.1,1,0.5,1.8,1.5,1.9c0.9,0,1.7-0.8,1.6-1.7c-0.1-0.4-0.3-0.8-0.6-1.1c-0.1-0.1-0.5-0.5-0.8-0.6l0.1-0.1c0.5-0.1,1.2-0.3,1.3-0.3
	c0.7-0.1,1.4,0.1,2.1,0.4c1.1,0.5,2,1.5,2.8,2.5l0,0l0.3,0.4c0.1,0.2,0.3,0.3,0.4,0.5c0.6,0.8,1.2,1.7,1.8,2.5l-0.2-0.2
	c-0.3-0.4-0.6-0.7-1-1c-0.2-0.2-0.5-0.4-0.8-0.6c-0.3-0.2-0.7-0.4-1-0.5h-0.2h-0.2H38h-0.2c-0.2,0-0.4,0-0.6,0.1l0,0
	c-0.1-0.1-0.2-0.2-0.3-0.2c0,0-0.1,0-0.1-0.1h-0.1c-0.1,0-0.2,0-0.3,0c-0.2,0-0.4,0.1-0.5,0.1c-0.1,0.1-0.3,0.2-0.4,0.3
	c-0.1,0.1-0.2,0.2-0.3,0.3l-0.1,0.1l-0.2-0.2c-0.1,0-0.1,0-0.2,0h-0.1c-0.1,0-0.2,0-0.3-0.1c-0.1,0-0.2-0.1-0.3-0.2h-0.1
	c0,0,0,0,0.1,0.1s0.2,0.2,0.3,0.2s0.2,0.1,0.3,0.1h0.2H35c0.1,0,0.1,0,0.2-0.1l0.2-0.1c0.1-0.1,0.2-0.2,0.3-0.3s0.2-0.2,0.4-0.2
	c0.1-0.1,0.3-0.1,0.5-0.1c0.1,0,0.2,0,0.3,0H37h0.1c0.1,0.1,0.2,0.1,0.2,0.2l0,0h-0.1h-0.1c-0.1,0.1-0.2,0.1-0.3,0.2
	c-0.1,0.1-0.1,0.2-0.2,0.3c0,0.1-0.1,0.2-0.1,0.4c0,0.1,0.1,0.2,0.1,0.4c0.1,0.1,0.2,0.2,0.3,0.2s0.3,0,0.4,0
	c0.1-0.1,0.2-0.1,0.3-0.2c0.1-0.1,0.1-0.2,0.2-0.3c0-0.1,0-0.2,0-0.3c0-0.2-0.1-0.4-0.3-0.6l0,0c0.2,0,0.3,0,0.5,0h0.2h0.2h0.1h0.1
	c0.4,0.1,0.7,0.3,1,0.5s0.5,0.4,0.8,0.6c0.5,0.4,0.8,0.7,1,1c0.2,0.2,0.4,0.4,0.4,0.4l0.7,1l-0.1-0.1c0,0-1.3-1.5-1.9-1.3
	c-0.6,0.2-0.3,0.6,0,0.8c0.3,0.3,1.8,0.5,2.4,1.1c0.4,0.6,0.8,1.1,1.3,1.6c0.1,0.1,0.8,0.7,1.2,1c0.4,0.5,0.8,1.1,1.1,1.7
	c0.8,1.4,1.2,2.9,1.5,4.5c0.1,0.6,0.2,1.2,0.2,1.8l0,0v0.1c0-0.1,0-0.1,0-0.2l0,0c0-0.1,0-0.1,0-0.2c-0.1-0.6-0.3-1.2-0.5-1.8
	c-0.1-0.4-0.3-0.8-0.4-1.2c0-0.1,0-0.1-0.1-0.2c0-0.1,0-0.1-0.1-0.2L47,21.1c-0.1-0.2-0.2-0.4-0.3-0.7c-0.2-0.5-0.5-0.9-0.8-1.4
	c-0.1-0.1-0.2-0.2-0.2-0.4l-0.1-0.2l-0.1-0.2c-0.1-0.1-0.2-0.2-0.3-0.4l-0.3-0.1c-0.2-0.2-0.4-0.5-0.6-0.7c-0.1-0.1-0.2-0.2-0.3-0.3
	l-0.3-0.3c-0.2-0.2-0.4-0.4-0.6-0.6l-0.6-0.5c-0.7-0.6-1.4-1.2-2.1-1.7l-0.5-0.3c0-0.1-0.1-0.2-0.3-0.2l-0.4-0.2l-0.3-0.2l-0.4-0.2
	c0,0-0.1-0.1-0.2-0.1l0.1,0.1l0.4,0.3c0.1,0.1,0.2,0.1,0.3,0.2l0.4,0.2c0.1,0.1,0.3,0.2,0.4,0.3l0.4,0.3c0.7,0.5,1.4,1.1,2.1,1.7
	L43,16l0.6,0.6l0.3,0.3c0.1,0.1,0.2,0.2,0.3,0.3c0.2,0.2,0.4,0.4,0.5,0.7l0.3,0.3l0.3,0.3l0.1,0.2c0,0.1,0.1,0.1,0.1,0.2l0.2,0.3
	c0.3,0.5,0.6,0.9,0.8,1.4c0.1,0.2,0.2,0.4,0.3,0.7c0,0.1,0.1,0.2,0.2,0.3c0,0.1,0.1,0.1,0.1,0.2l0.1,0.2c0.2,0.4,0.3,0.8,0.5,1.2
	c0.1,0.4,0.2,0.6,0.3,0.8l0,0c0.1,0.4,0.2,0.7,0.2,0.9s0.1,0.4,0.1,0.5s0,0.1,0,0.2s0,1.7,0,1.7s0.1-0.6,0.1-1.3l0,0
	c0-0.5,0-1.1,0-1.2c-0.1-1-0.2-2.1-0.4-3.1c-0.1-0.3-0.2-0.6-0.3-0.9l0,0c0-0.3,0.1-0.5,0.2-0.8c0.2-0.5,0.5-0.9,0.9-1.1
	c0.9-0.5,2.1-0.4,2.6,0.6c0.5,0.8-0.2,2.1-1.2,2c-0.5,0-0.8-0.4-0.9-0.9c0-0.1,0-0.2,0-0.3c0.2-0.2,0.5-0.3,0.8-0.2
	c0.3,0.2,0.3-0.2,0.3-0.2c0.3,0,0.3,0.5,0.3,0.5s0.6-0.6-0.1-1c-0.8-0.5-1.4,0.5-1.4,0.5l0,0C49,20.1,49,20.4,49,20.6
	c0.1,0.7,0.6,1.2,1.2,1.2c1,0.1,1.7-0.7,1.8-1.6c0.1,0.3,0.3,0.6,0.8,0.7c0,0-0.2-0.2-0.1-0.6s-0.1-1.1-0.8-1.2
	c-0.2-0.3-0.4-0.5-0.7-0.7c0.2,0,0.6,0,0.9,0.1c0.3,0,0.6,0,0.8,0l0,0c0,0.1,0,0.2,0.1,0.3c0.1,0.2,0.2,0.3,0.3,0.4s0.2,0.2,0.4,0.3
	c0.1,0.1,0.3,0.1,0.4,0.1c0.1,0,0.3,0,0.4-0.1c0.2-0.1,0.4-0.2,0.6-0.3c0.1-0.1,0.3-0.1,0.5-0.1C55.7,19.2,55.8,19.2,55.9,19.2
	L55.9,19.2C56,19.3,56,19.3,55.9,19.2z M49.5,13.1c0,0.1-0.1,0.2-0.2,0.4c0,0.1-0.1,0.1-0.1,0.1l-0.1,0.1H49l-0.1-0.1
	c0-0.1,0-0.2,0.1-0.3s0.2-0.2,0.3-0.2c0.1-0.1,0.2-0.1,0.3-0.2l0,0C49.6,12.9,49.6,13,49.5,13.1L49.5,13.1z M45.5,6.8
	c0-0.2,0.1-0.4,0.2-0.5s0.2-0.2,0.3-0.2c0.1-0.1,0.2-0.1,0.3,0c0.1,0,0.1,0.1,0.1,0.2s0,0.2,0,0.3c-0.1,0.2-0.3,0.3-0.5,0.4
	l-0.3,0.1C45.5,7,45.5,6.9,45.5,6.8L45.5,6.8z M36.7,2.8c0,0,0,0.1,0,0.2c0,0.1,0,0.2,0,0.3c0,0.1,0,0.1-0.1,0.1c0,0,0,0,0,0.1h-0.1
	c-0.1,0.1-0.2,0.1-0.3,0.1c-0.2,0-0.4-0.3-0.4-0.6c0-0.1,0.1-0.3,0.2-0.4c0-0.1,0.1-0.1,0.2-0.1c0.1,0,0.1-0.1,0.2-0.1
	c0.1,0,0.1,0,0.2,0c0,0.1,0.1,0.2,0.1,0.2L36.7,2.8z M23.3,2.4c0.1,0,0.1,0,0.2,0s0.1,0,0.2,0.1c0.1,0,0.1,0.1,0.2,0.1
	C24,2.7,24,2.8,24.1,3c0,0.3-0.2,0.5-0.4,0.6c-0.1,0-0.2,0-0.3-0.1h-0.1c0,0,0,0,0-0.1c0,0,0-0.1-0.1-0.1c0-0.1,0-0.2,0-0.3
	c0,0,0-0.1,0-0.2l0.1-0.1C23.2,2.6,23.3,2.5,23.3,2.4z M14.3,7c-0.1,0-0.2,0-0.3-0.1c-0.2-0.1-0.4-0.2-0.5-0.4c0-0.1,0-0.2,0-0.3
	c0-0.1,0.1-0.2,0.1-0.2c0.1,0,0.2,0,0.3,0s0.2,0.1,0.2,0.2c0.1,0.1,0.2,0.3,0.2,0.5C14.3,6.9,14.3,7,14.3,7z M10.3,12.8
	c0.1,0,0.2,0.1,0.3,0.2c0.1,0.1,0.2,0.2,0.3,0.2c0.1,0.1,0.1,0.2,0.1,0.3s0,0.1-0.1,0.1h-0.1l-0.1-0.1l-0.1-0.1
	c-0.1-0.1-0.1-0.2-0.2-0.4C10.3,13,10.3,12.9,10.3,12.8L10.3,12.8z M6.8,18.3c-0.3,0-0.5-0.1-0.8-0.1c-0.2,0-0.3-0.1-0.4-0.2
	s-0.2-0.2-0.2-0.4c0-0.1,0-0.2,0-0.2v-0.1v-0.1c0,0,0-0.1,0.1-0.1C5.5,17,5.6,17,5.7,17c0.1,0,0.2,0,0.2,0H6l0.1,0.1
	c0.1,0.1,0.1,0.1,0.2,0.2s0.2,0.3,0.3,0.4C6.7,17.9,6.8,18.1,6.8,18.3z M22.5,10.6L22.5,10.6l0.2,0.1h0.1c0.1,0,0.2,0.1,0.2,0.2
	c0.1,0.1,0.1,0.2,0.2,0.3c0,0.1,0,0.2,0,0.3c0,0.2-0.2,0.4-0.3,0.5c-0.1,0-0.2,0-0.3,0c-0.1,0-0.2-0.1-0.2-0.2
	c-0.1-0.1-0.1-0.2-0.1-0.3s0-0.2,0-0.3C22.3,11,22.4,10.8,22.5,10.6L22.5,10.6z M27.3,6.9l0.1,0.2c0.1,0.2,0.2,0.3,0.3,0.5
	c0,0.1,0.1,0.2,0.2,0.4c0,0.1,0,0.3,0,0.4c0,0.2,0,0.3-0.1,0.5c-0.1,0.1-0.3,0.2-0.4,0.2h-0.1h-0.1h-0.1C27,9.1,26.9,9,26.9,9
	c-0.1-0.1-0.1-0.1-0.1-0.2V8.7V8.6c0-0.2,0-0.3,0.1-0.5c0-0.2,0-0.3,0-0.4c0.1-0.3,0.2-0.4,0.2-0.6L27.3,6.9z M28,7.5
	c0.3,0.3,0.4,0.6,0.5,1c0.1,0.7-0.2,1.3-0.9,1.4c-0.8,0.2-1.6-0.6-1.4-1.4c0.1-0.4,0.3-0.7,0.6-1L27,7.3c-0.1,0.1-0.1,0.2-0.2,0.4
	c-0.1,0.1-0.1,0.3-0.1,0.4c-0.1,0.2-0.1,0.3-0.1,0.5v0.1v0.1c0,0.1,0.1,0.2,0.2,0.3s0.2,0.1,0.3,0.2c0.1,0,0.2,0,0.3,0
	c0.1,0,0.2,0,0.3-0.1c0.1,0,0.2-0.1,0.3-0.2c0.1-0.1,0.1-0.2,0.1-0.3s0-0.2,0-0.3c0-0.2-0.1-0.3-0.1-0.5c0-0.1-0.1-0.3-0.2-0.4
	c-0.1-0.2-0.2-0.4-0.3-0.5l-0.1-0.1l0,0l0,0C27.4,7,27.9,7.4,28,7.5L28,7.5z M33.1,7.4c0.3,0.3,0.5,0.6,0.6,1
	c0.2,0.8-0.5,1.6-1.4,1.4c-0.7-0.1-1-0.7-0.9-1.4c0.1-0.4,0.2-0.7,0.5-1c0.1-0.1,0.6-0.5,0.6-0.6l0,0l0,0l-0.1,0.1
	c-0.1,0.2-0.2,0.3-0.3,0.5C32,7.5,32,7.7,31.9,7.8c0,0.3-0.1,0.5-0.1,0.6s0,0.2,0,0.3s0,0.2,0.1,0.3s0.2,0.2,0.3,0.2
	s0.2,0.1,0.3,0.1s0.2,0,0.3,0s0.2-0.1,0.3-0.2c0.1-0.1,0.1-0.2,0.2-0.3V8.7V8.6c0-0.2,0-0.3-0.1-0.5c0-0.1-0.1-0.3-0.1-0.4
	c-0.1-0.2-0.2-0.4-0.2-0.5L33.1,7.4z M32.7,7.1c0.1,0.1,0.2,0.3,0.2,0.6C32.9,7.8,33,8,33,8.1c0,0.2,0.1,0.3,0.1,0.5v0.1v0.1
	C33.1,8.9,33,8.9,33,9c-0.1,0-0.1,0.1-0.2,0.1h-0.1h-0.1h-0.1c-0.2,0-0.4-0.1-0.4-0.2C32,8.8,32,8.6,32,8.4s0-0.3,0.1-0.5
	c0-0.1,0.1-0.3,0.2-0.4c0.1-0.2,0.2-0.4,0.3-0.5l0.1-0.1V7.1z M37.6,11.1c0,0.1,0,0.2,0,0.3s-0.1,0.2-0.1,0.3
	c-0.1,0.1-0.1,0.1-0.2,0.2c-0.1,0-0.2,0-0.3,0c-0.2-0.1-0.3-0.3-0.3-0.5c0-0.1,0-0.2,0-0.3s0.1-0.2,0.2-0.3c0.1-0.1,0.1-0.1,0.2-0.2
	h0.1h0.1h0.1l0.1,0.1C37.5,10.8,37.6,11,37.6,11.1L37.6,11.1z M53.2,17.7c0.1-0.2,0.2-0.3,0.3-0.4s0.1-0.1,0.2-0.2l0.1-0.1h0.1
	c0.1,0,0.2,0,0.2,0c0.1,0,0.1,0.1,0.2,0.1c0,0,0,0.1,0.1,0.1c0,0,0,0,0,0.1v0.1c0,0.1,0,0.2,0,0.2c0,0.2-0.1,0.3-0.2,0.4
	c0,0-0.2,0.1-0.3,0.1c-0.2,0.1-0.5,0.1-0.8,0.1C53.1,18.1,53.2,17.9,53.2,17.7z M40,9.7L40,9.7L40,9.7L40,9.7z M48.5,33.9
	c0-0.6,0-1.3-0.1-1.3s0,1.6,0,1.7c0,0.1,0,0.1,0,0.2c0,0.1-0.1,0.3-0.1,0.5s-0.1,0.6-0.2,0.9c-0.1,0.4-0.2,0.5-0.3,0.8
	s-0.3,0.8-0.5,1.2c0,0,0,0.1-0.1,0.2l-0.1,0.2c-0.1,0.1-0.1,0.2-0.2,0.3c-0.1,0.2-0.2,0.4-0.3,0.7c-0.2,0.5-0.5,0.9-0.8,1.4L45.6,41
	c0,0.1-0.1,0.1-0.1,0.2l-0.1,0.2c-0.1,0.1-0.2,0.2-0.3,0.3l-0.3,0.4c-0.2,0.2-0.4,0.4-0.5,0.7c-0.1,0.1-0.2,0.2-0.3,0.3l-0.3,0.3
	L43.1,44l-0.6,0.5c-0.6,0.6-1.3,1.1-2,1.6l-0.4,0.3c-0.1,0.1-0.3,0.2-0.4,0.3l-0.4,0.2c-0.2,0.1-0.3,0.2-0.4,0.2l-0.4,0.3
	c-0.1,0-0.1,0.1-0.1,0.1c0.1,0,0.1,0,0.2-0.1l0.4-0.2l0.3-0.2l0.4-0.2c0.1-0.1,0.3-0.2,0.4-0.3l0.5-0.3c0.8-0.5,1.5-1.1,2.1-1.7
	l0.6-0.5c0.2-0.2,0.4-0.4,0.6-0.6l0.3-0.3c0.1-0.1,0.2-0.2,0.3-0.3c0.2-0.2,0.4-0.4,0.6-0.7l0.3-0.3c0.1-0.1,0.2-0.2,0.3-0.4
	l0.1-0.2l0.1-0.2c0.1-0.1,0.2-0.2,0.2-0.3c0.3-0.5,0.6-0.9,0.8-1.4c0.1-0.2,0.2-0.5,0.3-0.7l0.1-0.3c0-0.1,0-0.1,0.1-0.2
	c0-0.1,0-0.1,0.1-0.2c0.2-0.4,0.3-0.8,0.4-1.2c0.2-0.6,0.3-1.2,0.5-1.8c0-0.1,0-0.1,0-0.2l0,0c0-0.1,0-0.1,0-0.2v0.1
	C48.4,34.5,48.5,34.2,48.5,33.9z M21.4,47.4l-0.5-0.3c-0.1-0.1-0.2-0.1-0.3-0.2l-0.4-0.2c-0.1-0.1-0.3-0.2-0.4-0.3l-0.4-0.3
	c-0.7-0.5-1.4-1.1-2.1-1.7l-0.6-0.5l-0.6-0.6L15.9,43c-0.1-0.1-0.2-0.2-0.3-0.3c-0.2-0.2-0.4-0.4-0.5-0.7l-0.3-0.4l-0.2-0.3
	l-0.1-0.2c0-0.1-0.1-0.1-0.1-0.2l-0.2-0.3c-0.3-0.5-0.6-0.9-0.8-1.4c-0.1-0.2-0.2-0.4-0.3-0.7L13,38.2c0,0-0.1-0.1-0.1-0.2
	c0-0.1,0-0.1-0.1-0.2c-0.2-0.4-0.3-0.8-0.5-1.2c-0.1-0.4-0.2-0.6-0.3-0.8s-0.3-0.5-0.3-0.7s-0.1-0.4-0.1-0.5s0-0.2,0-0.2
	c0-0.1,0-1.7,0-1.7s-0.1,0.6-0.1,1.3c0.1,0.3,0.1,0.6,0.2,0.9v-0.1c0,0.1,0,0.1,0,0.2l0,0c0,0.1,0,0.1,0,0.2
	c0.1,0.6,0.3,1.2,0.5,1.8c0.1,0.4,0.3,0.8,0.4,1.2c0,0.1,0,0.1,0.1,0.2s0,0.1,0.1,0.2l0.1,0.3c0.1,0.2,0.2,0.4,0.3,0.7
	c0.2,0.5,0.5,0.9,0.8,1.4c0.1,0.1,0.2,0.2,0.2,0.3l0.1,0.2l0.1,0.2c0.1,0.1,0.2,0.2,0.3,0.4h0.2c0.2,0.2,0.4,0.5,0.6,0.7
	c0.1,0.1,0.2,0.2,0.3,0.3l0.3,0.3c0.2,0.2,0.4,0.4,0.6,0.6c0.2,0.2,0.4,0.4,0.6,0.5c0.7,0.6,1.4,1.2,2.1,1.7l0.5,0.3
	c0.1,0.1,0.3,0.2,0.4,0.3l0.4,0.2l0.3,0.2L21.4,47.4c0,0.1,0.1,0.1,0.1,0.1C21.5,47.4,21.4,47.4,21.4,47.4z M35.4,9
	c0.5,0.3,1.2,0.7,2.4,0.4s1.5,0.1,1.8,0.4l-0.3-0.4c0,0-1.9-1.8-3.6-1.2c0,0-0.6,0.3-0.9,0.7C34.6,8.9,34.9,8.7,35.4,9z M40.9,8.8
	c-0.3-0.5-0.7-0.5-0.7-0.5s-0.1,0.2,0,0.7s0.5,1.1,1.4,2.2C41.5,11.3,41.4,9.8,40.9,8.8L40.9,8.8z M47.8,17.2
	c-0.6,0.4-0.4,2.2-0.2,3c0,0-0.2-1.6,0.7-2.4s-0.2-1.4-0.2-1.4S48.4,16.9,47.8,17.2L47.8,17.2z M53.5,21.5c-1.6,0-3.1,1.2-3.6,2.8
	c0.1-0.3,0.3-1.6-0.7-1.9c0,0,0.5,0.5,0,1s-0.1,1.7,0.5,2.5c0.1,0.9,0.4,1.8,1,2.6c0.3,0.4,0.7,0.8,1.2,1c0.1,0,1.4,0.4,1.4,0.2
	c0,0-1-0.2-1.1-0.2c-0.4-0.2-0.8-0.5-1.1-0.8c-0.5-0.7-0.9-1.5-1-2.4c-0.3-2,1.1-3.8,3.1-4.1c1.5-0.2,3.1,1,3.2,2.4
	c-0.2,0.2-0.9,0.7-1.8,0.4c0,0,0.9,1.4,1.8,0.3c0,0.1,0,0.1-0.1,0.2c-0.2,0.9-1.1,1.7-2.1,1.7c-0.8,0-1.7-0.7-1.8-1.5
	c0-0.2,0-0.4,0-0.5c0.1-0.2,0.3-0.5,0.6-0.7c1.1-0.9,0.4-0.4,0.7-1.3c0.2-0.8-3.5,1.5-1.1,3.7c0.4,0.5,1.1,0.7,1.8,0.7
	c-0.1,0.1-0.2,0.2-0.3,0.3c-0.1,0.2-0.2,0.4-0.2,0.6c0,0.1,0,0.3,0,0.4s0.1,0.3,0.1,0.4c0.2,0.3,0.4,0.4,0.7,0.5c0.1,0,0.3,0,0.5,0
	s0.3-0.1,0.4-0.2c0.4-0.2,0.5-0.7,0.4-1.1c0-0.1-0.1-0.3-0.2-0.4c-0.1-0.1-0.3-0.1-0.4-0.2c-0.1,0-0.3,0-0.4,0.1
	c-0.2,0.1-0.3,0.3-0.4,0.5c0,0.2,0,0.2,0.1,0.2c0-0.1,0-0.1,0-0.2s0.1-0.3,0.3-0.3c0.2-0.1,0.4-0.1,0.6,0.1c0.1,0.1,0.2,0.1,0.2,0.2
	c0.1,0.3,0,0.7-0.3,0.8c-0.2,0.1-0.4,0.2-0.7,0.1c-0.2-0.1-0.4-0.2-0.6-0.4c-0.1-0.1-0.1-0.2-0.1-0.3c0-0.1,0-0.2,0-0.3
	c0-0.2,0.1-0.4,0.2-0.6c0.1-0.1,0.2-0.3,0.3-0.4c0.3,0,0.7-0.1,1-0.3c1.1-0.6,1.6-1.9,1.3-3.2c-0.3-0.9-1-1.6-1.8-2l0,0
	c0,0,1.7,0.6,2.1-0.8c0,0-0.4,0.5-1.1,0C55.4,20.5,54.4,20.9,53.5,21.5L53.5,21.5z M34.6,6c0,0,1.2,0,1.8-0.9
	C36.4,5,35.3,4.9,34.6,6z M53,28.8c-0.4-0.1-0.9-0.3-1.2-0.6c-0.3-0.2-0.5-0.4-0.6-0.7c-0.2-0.3-0.3-0.7-0.4-1
	c-0.1-0.4-0.1-0.8,0-1.2c0.1-0.4,0.2-0.8,0.4-1.2c0.2-0.4,0.5-0.7,0.9-0.9c0.3-0.2,0.7-0.4,1.1-0.5c0.4-0.1,0.7-0.1,1.1-0.1
	c0.3,0,0.6,0.2,0.8,0.4c0.2,0.2,0.3,0.4,0.3,0.7c0,0.2,0,0.4-0.1,0.6c-0.1,0.1-0.2,0.2-0.3,0.2h-0.1l0,0l0,0c0.1,0,0.2-0.1,0.3-0.2
	c0.1-0.2,0.2-0.4,0.2-0.6c0-0.3-0.1-0.5-0.3-0.8c-0.1-0.1-0.2-0.2-0.4-0.3c-0.2-0.1-0.3-0.1-0.5-0.2c-0.4,0-0.8,0-1.1,0.1
	c-0.4,0.1-0.8,0.3-1.1,0.5c-0.4,0.3-0.7,0.6-0.9,1s-0.4,0.8-0.4,1.3c-0.1,0.4,0,0.8,0,1.2c0.1,0.7,0.5,1.3,1.1,1.8
	c0.5,0.4,1,0.6,1.6,0.7c0.1,0,0.1,0,0.1,0S53.3,28.8,53,28.8z M24.3,8.2c-1.7-0.6-3.6,1.2-3.6,1.2l-0.3,0.4c0.2-0.3,0.7-0.7,1.8-0.4
	C23.3,9.7,24,9.3,24.6,9c0.5-0.3,0.8-0.1,0.8-0.1C25,8.4,24.3,8.2,24.3,8.2z M19,8.8c-0.6,0.9-0.7,2.4-0.7,2.4
	c0.9-1.1,1.2-1.8,1.4-2.2s0-0.7,0-0.7S19.3,8.4,19,8.8z M8.3,13.8C8.8,13.6,8.2,13.8,8.3,13.8z M12.1,17.2c-0.6-0.4-0.3-0.8-0.3-0.8
	s-1.1,0.6-0.2,1.4c0.9,0.8,0.7,2.4,0.7,2.4C12.5,19.4,12.7,17.6,12.1,17.2L12.1,17.2z M10.7,23.4c-0.5-0.5,0-1,0-1
	c-1,0.4-0.7,1.6-0.7,1.9c-0.5-1.5-2-2.8-3.6-2.8c-0.9-0.6-1.9-1-2.5-0.5s-1.1,0-1.1,0c0.4,1.5,2.1,0.8,2.1,0.8l0,0
	c-0.8,0.4-1.5,1.1-1.8,2C2.7,25,3.3,26.3,4.4,27c0.2,0.1,0.4,0.2,0.6,0.2c0.1,0.1,0.2,0.2,0.3,0.4c0.1,0.2,0.2,0.4,0.2,0.6
	c0,0.1,0,0.2,0,0.4c0,0.1-0.1,0.2-0.2,0.3c-0.2,0.2-0.4,0.3-0.6,0.4c-0.2,0-0.5,0-0.7-0.1c-0.2-0.1-0.3-0.3-0.3-0.5
	c0-0.1,0-0.2,0-0.3c0.1-0.3,0.4-0.4,0.7-0.3c0.1,0,0.2,0.1,0.2,0.1c0,0.1,0.1,0.1,0.1,0.2s0,0.2,0,0.2c0-0.1,0.1-0.1,0-0.2
	c0-0.1,0-0.2,0-0.2c0-0.1-0.1-0.2-0.2-0.2s-0.1-0.1-0.2-0.1H4.2H4.1c-0.1,0-0.1,0-0.2,0c-0.1,0-0.1,0-0.2,0.1
	c-0.1,0.1-0.3,0.2-0.3,0.3c-0.1,0.2-0.1,0.3-0.1,0.5c0,0.3,0.2,0.6,0.4,0.8c0.1,0.1,0.3,0.1,0.4,0.2c0.2,0,0.3,0,0.5,0
	c0.3-0.1,0.6-0.3,0.7-0.5c0.1-0.1,0.1-0.3,0.2-0.4c0-0.1,0-0.3,0-0.4c0-0.2-0.1-0.5-0.2-0.7c-0.1-0.1-0.2-0.2-0.3-0.3
	c0.8,0.2,1.6-0.1,2.1-0.7c2.6-2.4-1.2-4.7-1-3.9c0.2,0.8-0.4,0.4,0.7,1.3c0.3,0.2,0.5,0.5,0.6,0.7c0,0.2,0.1,0.4,0,0.5
	c-0.1,0.9-1,1.5-1.8,1.5c-1,0-1.8-0.8-2.1-1.7c0-0.1,0-0.1-0.1-0.2c0.9,1.1,1.8-0.3,1.8-0.3c-0.9,0.4-1.6-0.2-1.8-0.4
	c0.2-1.5,1.7-2.6,3.2-2.4c1.9,0.3,3.3,2.2,3.1,4.1c-0.1,0.8-0.4,1.7-1,2.4c-0.3,0.4-0.7,0.7-1.1,0.8c-0.1,0-1.1,0.2-1.1,0.2
	c0,0.2,1.3-0.1,1.4-0.2c0.5-0.2,0.9-0.5,1.2-1c0.6-0.8,0.9-1.7,1-2.6C10.8,25,11.1,23.9,10.7,23.4z M23.5,5c0.5,0.9,1.8,0.9,1.8,0.9
	C24.6,4.9,23.5,5,23.5,5L23.5,5z M8.1,28.2c0.3-0.2,0.5-0.5,0.7-0.7c0.2-0.3,0.3-0.7,0.4-1c0.1-0.4,0.1-0.8,0-1.2
	C9.1,24.9,9,24.4,8.8,24s-0.5-0.7-0.9-1c-0.3-0.2-0.7-0.4-1.1-0.5s-0.7-0.1-1.1-0.1c-0.2,0-0.3,0.1-0.5,0.2
	c-0.1,0.1-0.3,0.2-0.4,0.3c-0.2,0.2-0.3,0.5-0.3,0.8c0,0.2,0,0.4,0.2,0.6c0.1,0.1,0.2,0.2,0.3,0.2h0.1l0,0H5c-0.1,0-0.2-0.1-0.3-0.2
	c-0.1-0.2-0.2-0.4-0.1-0.6c0-0.3,0.1-0.5,0.3-0.7c0.2-0.2,0.5-0.4,0.8-0.4c0.4,0,0.7,0,1.1,0.1s0.8,0.3,1.1,0.5
	c0.4,0.2,0.6,0.6,0.9,0.9c0.2,0.4,0.4,0.8,0.4,1.2c0.1,0.4,0,0.8,0,1.2c-0.1,0.4-0.2,0.7-0.4,1C8.5,27.7,8.3,27.9,8.1,28.2
	c-0.4,0.2-0.8,0.4-1.3,0.5c-0.3,0.1-0.5,0.1-0.5,0.1s0,0,0.1,0C7.1,28.8,7.7,28.6,8.1,28.2z M42.4,49.3
	C42.4,49.2,42.4,49.2,42.4,49.3C42.4,49.2,42.4,49.2,42.4,49.3z M42.4,49.3L42.4,49.3L42.4,49.3L42.4,49.3
	C42.4,49.3,42.4,49.4,42.4,49.3C42.4,49.4,42.4,49.4,42.4,49.3L42.4,49.3z M37.7,50.5c-1.1-0.3-1.8,0.1-2.4,0.4
	c-0.5,0.3-0.7,0.1-0.8,0.1c0.3,0.4,0.9,0.7,0.9,0.7c1.7,0.6,3.5-1.1,3.6-1.2l0,0l0.3-0.4C39.3,50.4,38.8,50.7,37.7,50.5L37.7,50.5z
	 M40.9,51c0.6-0.9,0.7-2.4,0.7-2.4c-0.9,1.1-1.2,1.8-1.4,2.2s0,0.7,0,0.7S40.5,51.5,40.9,51z M51.6,46.1L51.6,46.1L51.6,46.1h-0.2
	C51.5,46.1,51.5,46.1,51.6,46.1L51.6,46.1z M47.8,42.6c0.6,0.4,0.3,0.8,0.3,0.8s1.1-0.6,0.2-1.4c-0.9-0.8-0.7-2.4-0.7-2.4
	C47.4,40.4,47.2,42.3,47.8,42.6L47.8,42.6z M55,38L55,38c0.8-0.4,1.5-1.1,1.8-2c0.4-1.2-0.2-2.5-1.3-3.2c-0.3-0.2-0.7-0.3-1.1-0.3
	c-0.1-0.1-0.2-0.2-0.2-0.3C54.1,32,54,31.8,54,31.6c0-0.1,0-0.2,0-0.4c0-0.1,0.1-0.2,0.2-0.3c0.1-0.2,0.4-0.3,0.6-0.4
	c0.2,0,0.5,0,0.7,0.1s0.3,0.3,0.3,0.5c0,0.1,0,0.2,0,0.3s-0.1,0.2-0.2,0.2c-0.1,0.1-0.2,0.1-0.3,0.1s-0.2,0-0.3,0s-0.2-0.1-0.2-0.1
	c0-0.1-0.1-0.1-0.1-0.2c0-0.1,0-0.2,0-0.2s0,0.1,0,0.2c0,0.1,0,0.2,0,0.2c0,0.1,0.1,0.2,0.2,0.2c0.1,0,0.1,0.1,0.2,0.1h0.1h0.1
	c0.1,0,0.1,0,0.2,0c0.1,0,0.1,0,0.2-0.1c0.1-0.1,0.3-0.2,0.3-0.3c0.1-0.2,0.1-0.3,0.1-0.5c0-0.5-0.4-0.9-0.9-0.9c-0.2,0-0.3,0-0.5,0
	c-0.5,0.1-0.8,0.5-0.9,0.9c0,0.1,0,0.3,0,0.4c0,0.2,0.1,0.5,0.2,0.7c0.1,0.1,0.1,0.2,0.2,0.2c-0.6,0-1.2,0.2-1.6,0.7
	c-2.4,2.2,1.4,4.5,1.1,3.7s0.4-0.4-0.7-1.3c-0.3-0.2-0.5-0.5-0.6-0.7c0-0.2-0.1-0.4,0-0.5c0.1-0.9,1-1.5,1.8-1.5
	c1,0,1.8,0.8,2.1,1.7c0,0.1,0,0.2,0.1,0.2c-0.9-1.1-1.8,0.3-1.8,0.3c0.9-0.4,1.6,0.2,1.8,0.4c-0.2,1.5-1.7,2.6-3.2,2.4
	c-1.9-0.3-3.3-2.2-3.1-4.1c0.1-0.8,0.4-1.7,1-2.4c0.3-0.4,0.7-0.6,1.1-0.8c0.1,0,1.1-0.2,1.1-0.2c0-0.2-1.3,0.1-1.4,0.2
	c-0.5,0.2-0.9,0.5-1.2,1c-0.6,0.8-0.9,1.7-1,2.6c-0.6,0.8-1,2-0.5,2.5s0,1,0,1c1-0.4,0.7-1.6,0.7-1.9c0.5,1.5,2,2.8,3.6,2.8
	c0.9,0.6,1.9,1,2.5,0.5s1.1,0,1.1,0C56.6,37.4,55,38,55,38L55,38z M36.4,54.8c-0.5-0.9-1.8-0.9-1.8-0.9C35.3,55,36.4,54.8,36.4,54.8
	z M51.2,32.4c0.2-0.3,0.4-0.5,0.6-0.7c0.4-0.3,0.8-0.5,1.2-0.6c0.3-0.1,0.5-0.1,0.5-0.1s0,0-0.1,0c-0.6,0.1-1.2,0.3-1.6,0.7
	c-0.6,0.4-0.9,1.1-1.1,1.8c-0.1,0.4-0.1,0.8,0,1.2s0.2,0.9,0.4,1.3c0.2,0.4,0.5,0.7,0.9,1c0.3,0.2,0.7,0.4,1.1,0.5
	c0.4,0.1,0.7,0.1,1.1,0.1c0.2,0,0.3-0.1,0.5-0.2c0.1-0.1,0.3-0.2,0.4-0.3c0.2-0.2,0.3-0.5,0.3-0.8c0-0.2,0-0.4-0.2-0.6
	c-0.1-0.1-0.2-0.2-0.3-0.2h-0.1l0,0h0.1c0.1,0,0.2,0.1,0.3,0.2c0.1,0.2,0.2,0.4,0.1,0.6c0,0.3-0.1,0.5-0.3,0.7s-0.5,0.4-0.8,0.4
	c-0.4,0-0.7,0-1.1-0.1c-0.4-0.1-0.8-0.3-1.1-0.5c-0.4-0.2-0.6-0.6-0.9-0.9c-0.2-0.4-0.4-0.8-0.4-1.2c-0.1-0.4,0-0.8,0-1.2
	C50.9,33.1,51,32.8,51.2,32.4z M17.5,49.4C17.5,49.4,17.5,49.3,17.5,49.4C17.5,49.3,17.5,49.3,17.5,49.4
	C17.5,49.3,17.5,49.4,17.5,49.4L17.5,49.4z M17.5,49.3L17.5,49.3L17.5,49.3L17.5,49.3L17.5,49.3z M17.5,49.3L17.5,49.3L17.5,49.3z
	 M24.5,50.8c-0.5-0.3-1.2-0.7-2.4-0.4c-1.1,0.3-1.5-0.1-1.7-0.4l0.3,0.4l0,0c0.1,0.1,1.9,1.8,3.6,1.2c0,0,0.6-0.3,0.9-0.7
	C25.2,51,25,51.1,24.5,50.8L24.5,50.8z M19,51c0.3,0.5,0.7,0.5,0.7,0.5s0.1-0.2,0-0.7s-0.5-1.1-1.4-2.2C18.3,48.6,18.4,50.1,19,51
	L19,51z M8.3,46.1L8.3,46.1L8.3,46.1c0,0,0.1,0,0.2,0H8.3L8.3,46.1z M12.1,42.6c0.6-0.4,0.4-2.2,0.2-3c0,0,0.2,1.6-0.7,2.4
	c-0.9,0.8,0.2,1.4,0.2,1.4S11.5,43,12.1,42.6z M10.2,34c-0.1-0.9-0.4-1.8-1-2.6c-0.3-0.4-0.7-0.8-1.2-1c-0.1,0-1.4-0.4-1.4-0.2
	c0,0,1,0.2,1.1,0.2c0.4,0.2,0.8,0.5,1.1,0.8c0.5,0.6,0.9,1.5,1,2.4c0.3,2-1.1,3.8-3.1,4.1c-1.5,0.2-3.1-1-3.2-2.4
	c0.2-0.2,0.9-0.7,1.8-0.4c0,0-0.9-1.4-1.8-0.3c0-0.1,0-0.1,0.1-0.2c0.2-0.9,1.1-1.7,2.1-1.7c0.8,0,1.7,0.7,1.8,1.5
	c0,0.2,0,0.4,0,0.5c-0.1,0.2-0.3,0.5-0.6,0.7c-1.1,0.9-0.4,0.4-0.7,1.3s3.5-1.5,1.1-3.7c-0.6-0.7-1.5-0.9-2.4-0.6H5
	c0.2-0.1,0.3-0.2,0.4-0.4c0.1-0.2,0.2-0.4,0.3-0.6c0-0.1,0-0.3,0-0.4s-0.1-0.3-0.2-0.4c-0.2-0.3-0.4-0.4-0.7-0.5c-0.1,0-0.3,0-0.5,0
	c-0.2,0-0.3,0.1-0.4,0.2c-0.3,0.2-0.4,0.4-0.4,0.7c0,0.3,0.1,0.6,0.3,0.8c0.1,0.1,0.3,0.1,0.4,0.2c0.1,0,0.3,0,0.4-0.1
	c0.1-0.1,0.2-0.1,0.3-0.2c-0.1,0,0-0.1,0-0.2c0-0.2,0-0.2-0.1-0.2s0,0.1,0,0.2c0,0.1-0.1,0.3-0.3,0.3c-0.2,0.1-0.4,0.1-0.6-0.1
	c-0.1-0.1-0.2-0.1-0.2-0.2c-0.1-0.3,0-0.7,0.3-0.8c0.2-0.1,0.4-0.2,0.7-0.1c0.2,0,0.4,0.2,0.6,0.4c0.1,0.1,0.1,0.2,0.1,0.3
	s0,0.2,0,0.3c0,0.2-0.1,0.4-0.2,0.6c-0.1,0.1-0.2,0.3-0.3,0.4c-0.1,0-0.1,0.1-0.2,0.1l-0.1,0.1H4.5h0.1l0,0l-0.2,0.1
	c-1.1,0.6-1.6,1.9-1.3,3.2c0.3,0.9,1,1.6,1.8,2l0,0c0,0-1.7-0.6-2.1,0.8c0,0,0.4-0.5,1.1,0s1.6,0.1,2.5-0.5c1.6,0,3-1.2,3.6-2.8
	c-0.1,0.3-0.3,1.5,0.6,1.9c0,0-0.5-0.5,0-1S10.8,34.8,10.2,34z M25.2,53.9c0,0-1.2,0-1.8,0.9C23.5,54.8,24.6,55,25.2,53.9z M5,35.5
	L5,35.5L5,35.5L5,35.5c-0.1,0-0.3,0.1-0.3,0.2c-0.1,0.2-0.2,0.4-0.2,0.6c0,0.3,0.1,0.5,0.3,0.8c0.1,0,0.2,0.1,0.3,0.2
	c0.2,0.1,0.3,0.1,0.5,0.2c0.4,0,0.8,0,1.1-0.1c0.4-0.1,0.8-0.3,1.1-0.5c0.4-0.3,0.7-0.6,0.9-1c0.2-0.4,0.4-0.8,0.4-1.3
	c0.1-0.4,0-0.8,0-1.2c-0.1-0.4-0.2-0.7-0.4-1c-0.2-0.3-0.4-0.5-0.7-0.7c-0.5-0.4-1-0.6-1.6-0.7l0,0c0,0,0.2,0,0.5,0.1
	c0.4,0.1,0.9,0.3,1.2,0.6c0.3,0.2,0.5,0.4,0.6,0.7c0.2,0.3,0.3,0.7,0.4,1c0.1,0.4,0.1,0.8,0,1.2c-0.1,0.5-0.2,0.9-0.4,1.3
	c-0.2,0.4-0.5,0.7-0.9,0.9c-0.3,0.2-0.7,0.4-1.1,0.5S6,37.4,5.6,37.4c-0.3,0-0.6-0.2-0.8-0.4c-0.2-0.2-0.3-0.4-0.3-0.7
	c0-0.2,0-0.4,0.1-0.6C4.8,35.6,4.9,35.5,5,35.5z M43.7,36.9c0,1-0.6,1.7-1.8,2.4c-1,0.5-2.1,0.8-3.2,0.8c-1.1,0-2.4-0.3-3.7-0.9
	c-1.4-0.6-3-1.4-5-2.5s-3.3-1.8-4-2.1c-1.1,1.3-2.2,2.2-3.2,2.9c-1.1,0.7-2.3,1-3.7,1c-0.8,0-1.5-0.3-2.3-0.8
	c-0.8-0.5-1.1-1.2-1.1-1.9c0-1,0.5-1.8,1.5-2.3c0.8-0.4,1.8-0.6,2.9-0.6s2.5,0.3,4.2,0.8c0.6-0.8,1.2-1.7,1.8-2.9
	c-0.2,0-0.4,0-0.6,0c-3.9,0-5.8-1.4-5.8-4.1c0-1.5,0.8-2.6,2.3-3.4c0.1-0.1,0.1-0.1,0.2-0.1s0.1,0,0.1,0.1v0.1
	c-1.2,0.4-1.7,1.3-1.7,2.6c0,1.3,0.6,2.4,1.9,3.2c1.1,0.7,2.4,1.1,3.8,1.1c0.4-0.8,1.1-2.2,2.1-4.3s1.8-3.7,2.5-4.7
	c1.6-2.4,3.3-3.6,5.1-3.6c0.2,0,0.3,0,0.3,0.1s-0.1,0.1-0.3,0.1c-1.7,0-3.4,1.2-5,3.7c-0.5,0.8-1.3,2.3-2.3,4.5s-1.7,3.6-2,4.2
	c0.6,0,1.2-0.1,1.8-0.2c0.1-0.1,0.4-0.7,0.8-1.7s0.6-1.5,0.7-1.8c2.6-5.9,5.4-8.8,8.6-8.8c0.6,0,1.2,0.2,1.5,0.7
	c0.4,0.4,0.6,1,0.6,1.7c0,2.7-3,5.6-9,8.7c-0.8,0.4-1.3,0.7-1.5,0.8c-0.2,0.1-0.3,0.1-0.5,0.2s-0.4,0.2-0.9,0.4
	c-0.1,0.3-0.5,0.8-1.1,1.7c-0.6,0.9-1.1,1.6-1.5,2.2l7.1,2.8c2.9,1.1,5.3,1.7,7.1,1.7s2.8-0.5,2.8-1.6c0-0.7-0.3-1.5-0.9-2.4
	c0.3,0.2,0.6,0.5,0.8,1C43.5,36.1,43.7,36.5,43.7,36.9z M19.5,37c-0.3,0-0.4,0-0.4-0.1s0.1-0.1,0.4-0.1c1.7,0,3.3-0.9,4.7-2.8
	c-1.7-0.6-3-0.8-4-0.8c-0.9,0-1.8,0.2-2.7,0.6c-0.8,0.4-1.3,1-1.3,1.7s0.4,1.4,1.1,1.8c0.6,0.4,1.3,0.6,2.2,0.6c0.9,0,2-0.3,3.3-1
	s2.3-1.4,2.8-2.2c-0.3-0.2-0.7-0.3-1.2-0.5C23.1,36,21.4,37,19.5,37L19.5,37z M28.4,30.6c-0.9,0.1-1.5,0.2-1.8,0.2
	c-0.6,1-1.2,2.1-1.9,3c0.2,0.1,0.6,0.2,1.2,0.4C26.3,34,27.1,32.8,28.4,30.6L28.4,30.6z M40.6,19.9c0-0.4-0.2-0.7-0.5-0.9
	c-0.3-0.2-0.7-0.3-1.1-0.3c-2.1,0-4.6,2.6-7.7,7.9c-0.9,1.5-1.6,2.7-2,3.4c1.8-0.6,4-2,6.7-4.2C39,23.3,40.6,21.4,40.6,19.9z"/>
</svg>
